<?xml version="1.0" encoding="iso-8859-1"?>
<!-- Generator: Adobe Illustrator 26.0.3, SVG Export Plug-In . SVG Version: 6.00 Build 0)  -->
<svg version="1.1" id="Layer_1" xmlns="http://www.w3.org/2000/svg" xmlns:xlink="http://www.w3.org/1999/xlink" x="0px" y="0px"
	 viewBox="0 0 770 480" style="enable-background:new 0 0 770 480;" xml:space="preserve">
<g>
	<path style="fill-rule:evenodd;clip-rule:evenodd;fill:#22BC22;" d="M414,400.203c0,0,5.469,9.032,8.992,23.524l1.555-0.33
		c0,0-4.507-16.63-9.422-23.558L414,400.203z"/>
	<g>
		<path style="fill-rule:evenodd;clip-rule:evenodd;fill:#FFEA00;" d="M408.214,401.664c1.843-1.309,4.474-2.547,4.841-2.031
			s-1.669,2.593-3.512,3.902c-1.842,1.309-2.794,1.354-3.161,0.837C406.016,403.856,406.372,402.973,408.214,401.664z"/>
		<path style="opacity:0.4;fill-rule:evenodd;clip-rule:evenodd;fill:#FFC400;" d="M411.618,400.54c0,0-0.101,0.712-0.275,1.527
			c-0.55,0.51-1.419,1.194-2.02,1.623C409.833,402.092,411.618,400.54,411.618,400.54z"/>
		<path style="fill-rule:evenodd;clip-rule:evenodd;fill:#FFEA00;" d="M409.969,402.683c1.034-1.81,2.974-3.828,3.752-3.488
			c0.778,0.339,0.098,2.907-0.936,4.718s-2.031,2.177-2.809,1.838C409.199,405.411,408.935,404.493,409.969,402.683z"/>
		<path style="opacity:0.4;fill-rule:evenodd;clip-rule:evenodd;fill:#FFC400;" d="M413.277,399.193
			c0.164-0.049,0.311-0.057,0.428-0.006c0.611,0.267,0.31,1.926-0.356,3.537C412.993,401.505,412.936,400.091,413.277,399.193z"/>
		<path style="fill-rule:evenodd;clip-rule:evenodd;fill:#FFEA00;" d="M419.329,401.23c-2.084-0.223-4.581-1.17-4.408-1.99
			c0.174-0.82,2.954-1.202,5.037-0.979c2.084,0.223,2.682,0.967,2.508,1.787C422.292,400.868,421.412,401.453,419.329,401.23z"/>
		<path style="opacity:0.4;fill-rule:evenodd;clip-rule:evenodd;fill:#FFC400;" d="M417.378,400.82
			c-1.426-0.414-2.574-1.029-2.457-1.581c0.043-0.204,0.256-0.381,0.584-0.527C416.193,399.177,416.883,399.968,417.378,400.82z"/>
		<path style="fill-rule:evenodd;clip-rule:evenodd;fill:#FFEA00;" d="M413.711,403.245c-0.695-1.679-0.709-4.172,0.359-4.626
			s2.815,1.305,3.511,2.984c0.695,1.679,0.075,2.642-0.993,3.095S414.406,404.924,413.711,403.245z"/>
		<path style="opacity:0.4;fill-rule:evenodd;clip-rule:evenodd;fill:#FFC400;" d="M415.675,398.688l0.001-0.041
			c1.04-0.385,2.964-0.491,4.53-0.286c0.043,0.006,0.523,0.021,0.564,0.027C417.749,399.448,415.675,398.688,415.675,398.688z"/>
		<path style="fill-rule:evenodd;clip-rule:evenodd;fill:#FFEA00;" d="M420.096,396.131c-2.187,0.568-4.829,1.784-4.67,2.398
			s3.059,0.391,5.246-0.176s2.834-1.267,2.675-1.88S422.284,395.563,420.096,396.131z"/>
		<path style="fill-rule:evenodd;clip-rule:evenodd;fill:#F4511E;" d="M416.814,398.251c-0.779-0.905-1.993-1.266-3.415-0.604
			c-1.422,0.662-1.919,1.869-1.736,3.002L416.814,398.251z"/>
		<path style="opacity:0.3;fill-rule:evenodd;clip-rule:evenodd;fill:#FFC400;" d="M411.663,400.649c0,0,2.585,0.137,5.151-2.398
			L411.663,400.649z"/>
	</g>
	<path style="fill-rule:evenodd;clip-rule:evenodd;fill:#22BC22;" d="M425.361,423.224c0,0-1.464-14.695,5.644-22.192
		c0,0-9.949,8.188-8.546,22.807L425.361,423.224z"/>
</g>
<g>
	<g>
		<rect x="623" y="171" style="fill:#A67C52;" width="34" height="117"/>
		<rect x="565" y="49" style="fill:#48ED48;" width="149" height="123"/>
		<rect x="565" y="49" style="fill:#48ED48;" width="149" height="123"/>
		<rect x="565" y="90" style="fill:#32BF32;" width="149" height="126"/>
		<path style="opacity:0.9;fill:#48ED48;" d="M565,49v41h149V49H565z M711,87H568V52h143V87z"/>
		<polygon style="opacity:0.4;fill:#32BF32;" points="565,90 565,93 711,93 711,213 714,213 714,90 		"/>
		<polygon style="opacity:0.5;fill:#32BF32;" points="568,213 568,93 565,93 565,216 714,216 714,213 710.958,213 		"/>
		<polygon style="opacity:0.4;fill:#A67C52;" points="657,230 657,216 623,216 623,288 654,288 654,285 626,285 626,230 		"/>
		
			<rect x="626.5" y="257.5" transform="matrix(6.123234e-17 -1 1 6.123234e-17 396.5 914.5)" style="opacity:0.4;fill:#A67C52;" width="58" height="3"/>
		<rect x="600" y="163" style="opacity:0.2;fill:#32BF32;" width="23" height="37"/>
		<rect x="585" y="106" style="opacity:0.2;fill:#32BF32;" width="30" height="17"/>
		<polygon style="opacity:0.2;fill:#32BF32;" points="680,149 680,139 666,139 666,152 674,152 674,170 697,170 697,149 		"/>
		<g>
			<path style="fill-rule:evenodd;clip-rule:evenodd;fill:#C09566;" d="M648.681,247.626c-0.97,0.959-2.302,1.556-3.772,1.556
				c-2.941,0-5.328-2.387-5.328-5.328c0-1.471,0.597-2.803,1.556-3.772l0.757,0.757c-0.767,0.778-1.247,1.843-1.247,3.016
				c0,2.355,1.907,4.262,4.262,4.262c1.172,0,2.238-0.48,3.016-1.247L648.681,247.626z"/>
			<path style="fill:#92633A;" d="M650.237,243.854c0,1.471-0.597,2.803-1.556,3.772l-0.757-0.757
				c0.767-0.778,1.247-1.843,1.247-3.016c0-2.355-1.907-4.262-4.262-4.262c-1.172,0-2.238,0.48-3.016,1.247l-0.757-0.757
				c0.97-0.959,2.302-1.556,3.772-1.556C647.85,238.525,650.237,240.912,650.237,243.854z"/>
		</g>
		<rect x="578" y="56" style="opacity:0.7;fill:#48ED48;" width="30" height="11"/>
		<rect x="688" y="66" style="opacity:0.6;fill:#48ED48;" width="17" height="11"/>
		<rect x="628" y="78" style="opacity:0.6;fill:#48ED48;" width="17" height="5"/>
	</g>
</g>
<g>
	<g>
		<path style="fill-rule:evenodd;clip-rule:evenodd;fill:#22BC22;" d="M487.113,407.634c1.707,3.297,1.59,9.584,1.59,9.584h1.59
			C490.292,417.219,489.586,410.637,487.113,407.634z"/>
		<path style="fill-rule:evenodd;clip-rule:evenodd;fill:#22BC22;" d="M501.06,425.305c0,0,2.178-19.81,13.66-27.719
			c0,0-15.426,8.026-17.664,27.719H501.06z"/>
		<path style="fill-rule:evenodd;clip-rule:evenodd;fill:#22BC22;" d="M482.174,419.914c0,0-0.645-5.868-4.046-8.211
			c0,0,4.57,2.378,5.232,8.211H482.174z"/>
		<path style="fill-rule:evenodd;clip-rule:evenodd;fill:#21AD21;" d="M493.358,417.219c0,0,1.781-12.343-7.165-18.637
			c0,0,10.135,5.503,10.135,18.637H493.358z"/>
		<path style="fill-rule:evenodd;clip-rule:evenodd;fill:#22BC22;" d="M498.646,411.677c-1.707,3.297-1.59,9.584-1.59,9.584h-1.59
			C495.467,421.262,496.173,414.68,498.646,411.677z"/>
		<path style="fill-rule:evenodd;clip-rule:evenodd;fill:#26D226;" d="M489.962,402.075c-2.452,6.759-1.979,19.187-1.979,19.187
			h-1.85C486.133,421.262,486.362,409.553,489.962,402.075z"/>
		<path style="fill-rule:evenodd;clip-rule:evenodd;fill:#26D226;" d="M505.259,416.539c-0.841,1.625-0.783,4.722-0.783,4.722
			h-0.783C503.692,421.262,504.04,418.019,505.259,416.539z"/>
		<path style="fill-rule:evenodd;clip-rule:evenodd;fill:#26D226;" d="M497.84,423.278c-0.841,1.625-0.783,4.722-0.783,4.722h-0.783
			C496.273,428,496.621,424.757,497.84,423.278z"/>
		<path style="fill-rule:evenodd;clip-rule:evenodd;fill:#22BC22;" d="M486.754,417.068c1.707,3.297,1.59,9.584,1.59,9.584h1.59
			C489.934,426.652,489.227,420.071,486.754,417.068z"/>
		<path style="fill-rule:evenodd;clip-rule:evenodd;fill:#26D226;" d="M483.64,412.249c0.885,1.71,0.824,4.97,0.824,4.97h0.824
			C485.289,417.219,484.923,413.806,483.64,412.249z"/>
		<path style="fill-rule:evenodd;clip-rule:evenodd;fill:#26D226;" d="M484.059,417.64c0.885,1.71,0.824,4.97,0.824,4.97h0.824
			C485.708,422.609,485.341,419.197,484.059,417.64z"/>
	</g>
	<g>
		<path style="fill-rule:evenodd;clip-rule:evenodd;fill:#22BC22;" d="M487.207,397.733c0,0,3.478,9.97,3.919,24.877h1.59
			c0,0-0.961-17.203-4.333-25L487.207,397.733z"/>
		<g>
			<path style="fill-rule:evenodd;clip-rule:evenodd;fill:#FFEA00;" d="M481.245,397.963c2.074-0.898,4.905-1.565,5.157-0.983
				c0.252,0.582-2.171,2.191-4.244,3.089s-3.014,0.745-3.266,0.164C478.639,399.652,479.171,398.861,481.245,397.963z"/>
			<path style="opacity:0.4;fill-rule:evenodd;clip-rule:evenodd;fill:#FFC400;" d="M484.807,397.569c0,0-0.247,0.676-0.586,1.436
				c-0.644,0.384-1.635,0.874-2.313,1.169C482.739,398.717,484.807,397.569,484.807,397.569z"/>
			<path style="fill-rule:evenodd;clip-rule:evenodd;fill:#FFEA00;" d="M482.75,399.324c1.387-1.556,3.703-3.128,4.394-2.635
				s-0.507,2.865-1.894,4.421s-2.439,1.709-3.129,1.215C481.431,401.832,481.363,400.88,482.75,399.324z"/>
			<path style="opacity:0.4;fill-rule:evenodd;clip-rule:evenodd;fill:#FFC400;" d="M486.71,396.595
				c0.171-0.014,0.316,0.009,0.42,0.083c0.542,0.388-0.096,1.949-1.082,3.386C485.952,398.798,486.19,397.403,486.71,396.595z"/>
			<path style="fill-rule:evenodd;clip-rule:evenodd;fill:#FFEA00;" d="M492.207,399.843c-1.992-0.65-4.239-2.095-3.899-2.861
				s3.139-0.564,5.131,0.086c1.992,0.65,2.423,1.502,2.083,2.268S494.199,400.493,492.207,399.843z"/>
			<path style="opacity:0.4;fill-rule:evenodd;clip-rule:evenodd;fill:#FFC400;" d="M490.384,399.038
				c-1.309-0.701-2.304-1.54-2.076-2.056c0.085-0.191,0.329-0.319,0.681-0.394C489.565,397.184,490.076,398.101,490.384,399.038z"/>
			<path style="fill-rule:evenodd;clip-rule:evenodd;fill:#FFEA00;" d="M486.294,400.649c-0.332-1.786,0.171-4.229,1.31-4.451
				s2.484,1.861,2.816,3.647c0.332,1.786-0.474,2.6-1.613,2.822S486.626,402.435,486.294,400.649z"/>
			<path style="opacity:0.4;fill-rule:evenodd;clip-rule:evenodd;fill:#FFC400;" d="M489.16,396.598l0.009-0.04
				c1.098-0.161,3.001,0.134,4.491,0.66c0.04,0.014,0.507,0.129,0.546,0.143C491.032,397.772,489.16,396.598,489.16,396.598z"/>
			<path style="fill-rule:evenodd;clip-rule:evenodd;fill:#FFEA00;" d="M494.016,395.014c-2.258,0.102-5.094,0.745-5.065,1.378
				c0.029,0.633,2.911,1.017,5.169,0.915c2.258-0.102,3.035-0.651,3.007-1.285C497.097,395.389,496.273,394.912,494.016,395.014z"/>
			<path style="fill-rule:evenodd;clip-rule:evenodd;fill:#F4511E;" d="M490.365,396.407c-0.574-1.046-1.687-1.652-3.216-1.299
				c-1.529,0.353-2.264,1.431-2.32,2.577L490.365,396.407z"/>
			<path style="opacity:0.3;fill-rule:evenodd;clip-rule:evenodd;fill:#FFC400;" d="M484.829,397.685c0,0,2.5,0.67,5.536-1.279
				L484.829,397.685z"/>
		</g>
		<path style="fill-rule:evenodd;clip-rule:evenodd;fill:#22BC22;" d="M493.549,422.609c0,0,1.614-14.679,10.122-20.54
			c0,0-11.431,5.948-13.089,20.54H493.549z"/>
	</g>
</g>
<g>
	<g>
		<path style="fill-rule:evenodd;clip-rule:evenodd;fill:#22BC22;" d="M513.974,393.484c0,0-2.162-19.661-13.557-27.51
			c0,0,15.31,7.966,17.531,27.51H513.974z"/>
		<path style="fill-rule:evenodd;clip-rule:evenodd;fill:#21AD21;" d="M525.169,383.844c0,0-2.63-18.219,10.577-27.51
			c0,0-14.96,8.122-14.96,27.51H525.169z"/>
		<path style="fill-rule:evenodd;clip-rule:evenodd;fill:#21AD21;" d="M532.215,386.595c0,0-1.696-11.748,6.82-17.74
			c0,0-9.646,5.238-9.646,17.74H532.215z"/>
		<path style="fill-rule:evenodd;clip-rule:evenodd;fill:#22BC22;" d="M516.579,374.973c1.695,3.272,1.578,9.512,1.578,9.512h1.578
			C519.735,384.485,519.034,377.953,516.579,374.973z"/>
		<path style="fill-rule:evenodd;clip-rule:evenodd;fill:#26D226;" d="M515.357,379.088c0.835,1.612,0.777,4.687,0.777,4.687h0.777
			C516.911,383.775,516.566,380.557,515.357,379.088z"/>
		<path style="fill-rule:evenodd;clip-rule:evenodd;fill:#26D226;" d="M520.535,388.981c0.835,1.612,0.777,4.687,0.777,4.687h0.777
			C522.09,393.668,521.745,390.449,520.535,388.981z"/>
		<path style="fill-rule:evenodd;clip-rule:evenodd;fill:#22BC22;" d="M529.844,374.332c-1.695,3.272-1.578,9.512-1.578,9.512
			h-1.578C526.689,383.844,527.39,377.312,529.844,374.332z"/>
		<path style="fill-rule:evenodd;clip-rule:evenodd;fill:#26D226;" d="M532.576,383.185c-1.695,3.272-1.578,9.512-1.578,9.512
			h-1.578C529.421,392.697,530.122,386.165,532.576,383.185z"/>
		<path style="fill-rule:evenodd;clip-rule:evenodd;fill:#26D226;" d="M534.628,378.253c-0.879,1.697-0.818,4.932-0.818,4.932
			h-0.818C532.992,383.185,533.355,379.798,534.628,378.253z"/>
		<path style="fill-rule:evenodd;clip-rule:evenodd;fill:#26D226;" d="M534.212,384.431c-0.879,1.697-0.818,4.932-0.818,4.932
			h-0.818C532.576,389.363,532.94,385.976,534.212,384.431z"/>
	</g>
	<g>
		<path style="opacity:0.2;" d="M528.877,389.132c-0.498,0.452-1.213,0.556-1.883,0.608c-1.086,0.084-2.177,0.084-3.266,0.084
			c-0.423,0-0.856-0.002-1.254-0.145c-0.445-0.16-0.818-0.487-1.27-0.627c-0.835-0.259-1.828,0.15-2.574-0.306
			c-0.327-0.2-0.553-0.557-0.595-0.938c-0.009-0.078-0.008-0.164,0.039-0.227c0.052-0.07,0.145-0.092,0.231-0.108
			c2.306-0.45,4.7-0.448,7.005,0.008c0.649,0.128,1.294,0.293,1.955,0.338c0.685,0.047,1.4-0.051,2.074,0.109
			c0.475,0.113,0.455,0.13,0.181,0.459C529.312,388.637,529.117,388.915,528.877,389.132z"/>
		<g>
			<path style="fill:#B2B2B2;" d="M529.844,386.435v1.749c0,0-1.362,0.48-2.043,0.743c-0.681,0.263-1.161-0.17-1.935-0.077
				c-0.774,0.108-1.734,0.108-2.214,0c-0.495-0.093-2.616-0.666-2.616-0.666l-2.709-0.48v-1.176c0,0,0.48-1.146,0.573-1.44
				c0.093-0.263,0.325-0.604,0.666-1.022c0.016-0.031,0.031-0.046,0.062-0.077c0.016-0.015,0.031-0.046,0.047-0.062
				c0.263-0.341,0.604-0.263,1.084-0.17c0.155,0.016,0.31,0.046,0.496,0.062c0.077,0.015,0.17,0.015,0.263,0.015
				c0.511,0,1.037-0.232,1.362-0.433c0.062-0.031,0.108-0.062,0.155-0.093v-0.016c0.139-0.077,0.217-0.139,0.217-0.139h1.548
				l1.842,0.867l2.229,0.588L529.844,386.435z"/>
			<path style="opacity:0.3;fill:#B2B2B2;" d="M529.844,388.03v0.155c0,0-1.362,0.48-2.043,0.743
				c-0.681,0.263-1.161-0.17-1.935-0.077c-0.774,0.108-1.734,0.108-2.214,0c-0.495-0.093-2.616-0.666-2.616-0.666l-2.709-0.48
				v-1.176c0,0,0.48-1.146,0.573-1.44c0.093-0.263,0.325-0.604,0.666-1.022c0.108,0.031,0.217,0.062,0.325,0.093
				c-0.046,0.263-0.139,0.542-0.124,0.821c0.015,0.279,0.155,0.573,0.418,0.697c-0.248,0.139-0.139,0.573,0.124,0.697
				c0.263,0.139,0.573,0.062,0.852,0c0.294-0.062,0.619-0.108,0.852,0.046c0.217,0.139,0.31,0.403,0.495,0.573
				c0.186,0.17,0.449,0.232,0.681,0.279c0.48,0.108,0.96,0.217,1.424,0.325c0.573,0.124,1.13,0.248,1.688,0.372
				c0.31,0.062,0.65,0.124,0.929-0.031c0.201-0.108,0.325-0.325,0.526-0.418c0.557-0.279,1.146,0.387,1.75,0.372
				c0.093,0,0.201-0.016,0.279,0.046C529.813,387.952,529.844,387.983,529.844,388.03z"/>
			<path style="opacity:0.3;fill:#B2B2B2;" d="M527.967,385.397c0.042,0.046,0.075,0.111,0.052,0.169
				c-0.246,0.002-1.615,0.084-1.198-0.473c0.165-0.221,0.389-0.181,0.624-0.159c0.167,0.016,0.263-0.017,0.363,0.113
				C527.884,385.146,527.863,385.283,527.967,385.397z"/>
			<path style="opacity:0.3;fill:#B2B2B2;" d="M522.801,384.376c-0.139,0.016-0.418-0.108-0.542-0.155
				c-0.279-0.108-0.418-0.186-0.728-0.17c-0.077,0-0.17-0.015-0.232-0.062c-0.046-0.046-0.062-0.108-0.046-0.17
				c0.077,0.015,0.17,0.015,0.263,0.015c0.604,0,1.208-0.325,1.517-0.526C523.064,383.571,523.157,384.329,522.801,384.376z"/>
			<path style="opacity:0.3;fill:#B2B2B2;" d="M529.844,386.435v0.743c-0.263-0.108-0.511-0.526-0.573-0.697
				c-0.17-0.403-0.217-0.867-0.511-1.192c-0.248-0.31-0.65-0.434-1.037-0.557c-0.31-0.108-0.635-0.201-0.96-0.201
				c-0.526-0.016-1.068,0.217-1.533-0.031c-0.294-0.155-0.495-0.495-0.82-0.588c-0.109-0.015-0.217-0.015-0.341-0.015
				c-0.341-0.016-0.697-0.093-1.006-0.248c-0.046-0.031-0.093-0.047-0.139-0.093c-0.031-0.046-0.047-0.093-0.047-0.155
				c0.062-0.031,0.108-0.062,0.155-0.093v-0.016c0.139-0.077,0.217-0.139,0.217-0.139h1.548l1.842,0.867l2.229,0.588
				L529.844,386.435z"/>
			<path style="opacity:0.3;fill:#B2B2B2;" d="M520.757,383.757c-0.031,0-0.062,0.031-0.077,0.062
				c-0.093,0.124-0.124,0.279-0.248,0.371c-0.108,0.077-0.279,0.062-0.403,0c-0.108-0.046-0.294-0.108-0.403-0.201
				c0.016-0.015,0.031-0.046,0.047-0.062C519.937,383.586,520.277,383.664,520.757,383.757z"/>
		</g>
	</g>
</g>
<g>
	<path style="fill-rule:evenodd;clip-rule:evenodd;fill:#22BC22;" d="M301.581,408.228c-2.057,3.972-1.915,11.546-1.915,11.546
		h-1.915C297.751,419.774,298.602,411.846,301.581,408.228z"/>
	<path style="fill-rule:evenodd;clip-rule:evenodd;fill:#26D226;" d="M306.081,414.778c-1.014,1.957-0.944,5.689-0.944,5.689h-0.944
		C304.194,420.467,304.613,416.56,306.081,414.778z"/>
	<path style="fill-rule:evenodd;clip-rule:evenodd;fill:#26D226;" d="M300.609,418.936c-1.013,1.957-0.944,5.689-0.944,5.689h-0.944
		C298.722,424.625,299.142,420.718,300.609,418.936z"/>
	<path style="fill-rule:evenodd;clip-rule:evenodd;fill:#22BC22;" d="M296.719,413.165c0.683,1.32,0.636,3.836,0.636,3.836h0.636
		C297.992,417.002,297.709,414.367,296.719,413.165z"/>
	<path style="fill-rule:evenodd;clip-rule:evenodd;fill:#26D226;" d="M288.393,414.465c2.057,3.972,1.915,11.546,1.915,11.546h1.915
		C292.223,426.011,291.372,418.083,288.393,414.465z"/>
	<path style="fill-rule:evenodd;clip-rule:evenodd;fill:#26D226;" d="M286.088,417.252c1.067,2.06,0.993,5.987,0.993,5.987h0.993
		C288.074,423.239,287.632,419.128,286.088,417.252z"/>
	<path style="fill-rule:evenodd;clip-rule:evenodd;fill:#26D226;" d="M297.567,408c-1.948,5.368-1.572,15.239-1.572,15.239h-1.469
		C294.526,423.239,294.708,413.939,297.567,408z"/>
</g>
<g>
	<path style="fill-rule:evenodd;clip-rule:evenodd;fill:#22BC22;" d="M385.015,405.34c-2.968,5.731-2.763,16.66-2.763,16.66h-2.763
		C379.489,422,380.717,410.56,385.015,405.34z"/>
	<path style="fill-rule:evenodd;clip-rule:evenodd;fill:#26D226;" d="M390.509,414.791c-1.462,2.824-1.362,8.209-1.362,8.209h-1.362
		C387.786,423,388.391,417.363,390.509,414.791z"/>
	<path style="fill-rule:evenodd;clip-rule:evenodd;fill:#26D226;" d="M385.614,418.781c-1.462,2.824-1.362,8.209-1.362,8.209h-1.362
		C382.891,426.99,383.496,421.353,385.614,418.781z"/>
	<path style="fill-rule:evenodd;clip-rule:evenodd;fill:#26D226;" d="M363.986,408.34c2.968,5.731,2.763,16.66,2.763,16.66h2.763
		C369.512,425,368.284,413.56,363.986,408.34z"/>
	<path style="fill-rule:evenodd;clip-rule:evenodd;fill:#26D226;" d="M389.931,417.362c1.539,2.972,1.433,8.638,1.433,8.638h1.433
		C392.797,426,392.16,420.068,389.931,417.362z"/>
	<path style="fill-rule:evenodd;clip-rule:evenodd;fill:#26D226;" d="M360.659,417.362c1.539,2.972,1.433,8.638,1.433,8.638h1.433
		C363.525,426,362.888,420.068,360.659,417.362z"/>
	<path style="fill-rule:evenodd;clip-rule:evenodd;fill:#26D226;" d="M380.224,402.011c-2.81,7.746-2.268,21.989-2.268,21.989h-2.12
		C375.836,424,376.099,410.581,380.224,402.011z"/>
	<path style="fill-rule:evenodd;clip-rule:evenodd;fill:#22BC22;" d="M370.31,411.34c2.968,5.731,2.763,16.66,2.763,16.66h2.763
		C375.836,428,374.608,416.56,370.31,411.34z"/>
</g>
<g>
	<g>
		<path style="fill-rule:evenodd;clip-rule:evenodd;fill:#22BC22;" d="M353.075,385.297c0,0-1.267-11.521-7.944-16.12
			c0,0,8.971,4.668,10.272,16.12H353.075z"/>
		<path style="fill-rule:evenodd;clip-rule:evenodd;fill:#21AD21;" d="M357.663,380.822c0,0-1.541-10.676,6.198-16.12
			c0,0-8.766,4.76-8.766,16.12H357.663z"/>
		<path style="fill-rule:evenodd;clip-rule:evenodd;fill:#21AD21;" d="M361.792,382.434c0,0-0.994-6.884,3.997-10.395
			c0,0-5.653,3.069-5.653,10.395H361.792z"/>
		<path style="fill-rule:evenodd;clip-rule:evenodd;fill:#22BC22;" d="M354.479,377.457c0.993,1.918,0.925,5.574,0.925,5.574h0.925
			C356.328,383.031,355.917,379.203,354.479,377.457z"/>
		<path style="fill-rule:evenodd;clip-rule:evenodd;fill:#26D226;" d="M350.633,380.476c0.489,0.945,0.456,2.746,0.456,2.746h0.456
			C351.544,383.223,351.342,381.337,350.633,380.476z"/>
		<path style="fill-rule:evenodd;clip-rule:evenodd;fill:#26D226;" d="M354.948,383.832c0.489,0.945,0.456,2.746,0.456,2.746h0.456
			C355.859,386.578,355.656,384.692,354.948,383.832z"/>
		<path style="fill-rule:evenodd;clip-rule:evenodd;fill:#22BC22;" d="M360.402,375.248c-0.993,1.918-0.925,5.574-0.925,5.574
			h-0.924C358.553,380.822,358.964,376.995,360.402,375.248z"/>
		<path style="fill-rule:evenodd;clip-rule:evenodd;fill:#26D226;" d="M362.003,380.436c-0.993,1.918-0.925,5.574-0.925,5.574
			h-0.925C360.154,386.009,360.565,382.182,362.003,380.436z"/>
		<path style="fill-rule:evenodd;clip-rule:evenodd;fill:#26D226;" d="M363.206,377.545c-0.515,0.994-0.479,2.89-0.479,2.89h-0.479
			C362.247,380.436,362.46,378.451,363.206,377.545z"/>
		<path style="fill-rule:evenodd;clip-rule:evenodd;fill:#26D226;" d="M362.962,381.166c-0.515,0.994-0.479,2.89-0.479,2.89h-0.479
			C362.003,384.056,362.216,382.071,362.962,381.166z"/>
		<path style="fill-rule:evenodd;clip-rule:evenodd;fill:#26D226;" d="M354.684,361c2.928,8.07,2.363,22.908,2.363,22.908h2.209
			C359.255,383.908,358.982,369.928,354.684,361z"/>
	</g>
	<g>
		<path style="fill-rule:evenodd;clip-rule:evenodd;fill:#22BC22;" d="M342.59,393.933c0,0-0.786-7.143-4.926-9.995
			c0,0,5.563,2.894,6.369,9.995H342.59z"/>
		<path style="fill-rule:evenodd;clip-rule:evenodd;fill:#21AD21;" d="M346.658,390.431c0,0-0.955-6.62,3.843-9.995
			c0,0-5.435,2.951-5.435,9.995H346.658z"/>
		<path style="fill-rule:evenodd;clip-rule:evenodd;fill:#21AD21;" d="M349.218,391.43c0,0-0.616-4.268,2.478-6.445
			c0,0-3.505,1.903-3.505,6.445H349.218z"/>
		<path style="fill-rule:evenodd;clip-rule:evenodd;fill:#22BC22;" d="M343.537,387.208c0.616,1.189,0.573,3.456,0.573,3.456h0.573
			C344.683,390.664,344.428,388.29,343.537,387.208z"/>
		<path style="fill-rule:evenodd;clip-rule:evenodd;fill:#26D226;" d="M343.092,388.703c0.303,0.586,0.282,1.703,0.282,1.703h0.282
			C343.657,390.406,343.532,389.236,343.092,388.703z"/>
		<path style="fill-rule:evenodd;clip-rule:evenodd;fill:#26D226;" d="M344.974,392.297c0.303,0.586,0.282,1.703,0.282,1.703h0.282
			C345.539,394,345.413,392.831,344.974,392.297z"/>
		<path style="fill-rule:evenodd;clip-rule:evenodd;fill:#22BC22;" d="M348.356,386.975c-0.616,1.189-0.573,3.456-0.573,3.456
			h-0.573C347.21,390.431,347.464,388.058,348.356,386.975z"/>
		<path style="fill-rule:evenodd;clip-rule:evenodd;fill:#26D226;" d="M349.349,390.191c-0.616,1.189-0.573,3.456-0.573,3.456
			h-0.573C348.202,393.647,348.457,391.274,349.349,390.191z"/>
		<path style="fill-rule:evenodd;clip-rule:evenodd;fill:#26D226;" d="M350.094,388.399c-0.319,0.616-0.297,1.792-0.297,1.792H349.5
			C349.5,390.191,349.632,388.961,350.094,388.399z"/>
		<path style="fill-rule:evenodd;clip-rule:evenodd;fill:#26D226;" d="M349.943,390.644c-0.319,0.616-0.297,1.792-0.297,1.792
			h-0.297C349.349,392.436,349.481,391.206,349.943,390.644z"/>
	</g>
	<g>
		<path style="opacity:0.2;" d="M368.469,392.563c-0.413,0.073-0.826,0.148-1.225,0.277c-0.407,0.132-0.794,0.319-1.201,0.451
			c-0.918,0.299-1.903,0.312-2.868,0.281c-1.379-0.044-2.756-0.172-4.12-0.383c-0.429-0.066-0.864-0.143-1.25-0.342
			c-0.831-0.429-1.287-1.342-1.587-2.228c-0.388-1.145-0.608-2.347-0.652-3.556c-0.014-0.378,0.011-0.807,0.297-1.056
			c0.218-0.19,0.529-0.218,0.817-0.238c4.185-0.289,8.392-0.577,12.569-0.184c1.153,0.108,2.314,0.272,3.394,0.692
			c1.12,0.435,2.49,1.072,3.423,1.844c1.079,0.892,0.308,1.717-0.659,2.331C373.336,391.766,370.839,392.145,368.469,392.563z"/>
		<g>
			<path style="fill-rule:evenodd;clip-rule:evenodd;fill:#B2B2B2;" d="M376.816,387.602v0.787l-2.725,0.388l-2.877,0.618
				c0,0-2.725,0.466-3.179,0.624c-0.454,0.157-3.028-0.157-3.936,0c-0.908,0.157-3.482-0.908-3.482-0.908l-3.785-0.721l-1.296-2.762
				c0,0-0.218-0.309,0.085-1.78c0.097-0.484,0.103-0.787,0.067-0.999c-0.067-0.448-0.272-0.533-0.067-1.096
				c0.103-0.284,0.224-0.606,0.333-0.908c0.018-0.048,0.036-0.097,0.055-0.145c0.2-0.527,0.369-0.963,0.369-0.963l1.665-1.175
				c0,0,1.665-1.72,2.271-2.023c0.606-0.303,1.211-0.757,1.968-0.908c0.757-0.151,3.179,0,3.179,0s1.514,0.757,2.271,2.041
				c0.757,1.278,1.665,1.441,1.968,1.932s1.363,1.096,1.363,1.096l2.271,0.484l2.241,4.13l0.618,1.145L376.816,387.602z"/>
			<path style="opacity:0.3;fill-rule:evenodd;clip-rule:evenodd;fill:#B2B2B2;" d="M376.816,387.602v0.787l-2.725,0.388
				l-2.877,0.618c0,0-2.725,0.466-3.179,0.624c-0.454,0.157-3.028-0.157-3.936,0c-0.908,0.157-3.482-0.908-3.482-0.908l-3.785-0.721
				l-1.296-2.762c0,0-0.218-0.309,0.085-1.78c0.097-0.484,0.103-0.787,0.067-0.999l1.399,0.388l0.854,1.011l2.071,0.618l2.525,0.212
				c0,0,0.805,0.151,0.957,0.503c0.151,0.345,0.557,0.648,0.557,0.648h4.288l1.363,0.757l0.757,0.618h2.525l0.854,0.242l1.163,0.448
				l0.86-0.69H376.816z"/>
			<path style="opacity:0.3;fill:#B2B2B2;" d="M375.575,385.313c-0.539-0.109-1.102-0.466-1.399-0.775
				c-0.63-0.66-1.223-1.49-2.126-1.629c-0.503-0.079-1.029,0.079-1.514-0.073c-0.4-0.127-0.702-0.448-1.048-0.69
				c-0.926-0.654-2.229-0.769-2.943-1.647c-0.224-0.279-0.369-0.606-0.6-0.872c-0.636-0.739-1.732-0.824-2.707-0.854
				c-0.273-0.012-0.551-0.018-0.799,0.097c-0.254,0.115-0.442,0.339-0.69,0.466c-0.188,0.091-0.394,0.121-0.593,0.157
				c-0.939,0.176-1.853,0.515-2.677,0.999c-0.309,0.182-0.612,0.381-0.951,0.478c-0.515,0.139-1.054,0.024-1.574-0.127
				c0.018-0.048,0.036-0.097,0.055-0.145c0.2-0.527,0.369-0.963,0.369-0.963l1.665-1.175c0,0,1.665-1.72,2.271-2.023
				c0.606-0.303,1.211-0.757,1.968-0.908c0.757-0.151,3.179,0,3.179,0s1.514,0.757,2.271,2.041c0.757,1.278,1.665,1.441,1.968,1.932
				s1.363,1.096,1.363,1.096l2.271,0.484L375.575,385.313z"/>
			<path style="opacity:0.3;fill:#B2B2B2;" d="M374.224,382.824c-0.206-0.079-0.4-0.151-0.515-0.182
				c-0.351-0.097-0.957-0.703-1.284-0.854s-1.084-0.533-1.387-0.606c-0.303-0.079-1.163-0.733-1.314-0.884
				c-0.151-0.151-0.351-0.46-0.703-0.696c-0.357-0.236-0.484-0.236-0.908-0.569c-0.43-0.327-0.939-0.503-1.114-1.054
				c-0.176-0.557-0.478-1.369-0.654-1.441c-0.176-0.073-0.856-0.125-1.159-0.095c-0.303,0.024-1.694-0.19-1.997-0.111
				c-0.303,0.079-1.06,0.006-1.562,0.279c-0.509,0.279-0.836,0.357-1.187,0.66c-0.357,0.303-1.338,0.551-1.568,0.908
				c-0.224,0.351-0.424,0.406-0.751,0.678c-0.333,0.279-0.381,0.327-0.66,0.43c-0.067,0.024-0.248,0.03-0.466,0.012l1.048-0.739
				c0,0,0.279-0.285,0.648-0.648c0.533-0.521,1.266-1.193,1.623-1.375c0.563-0.279,1.12-0.69,1.805-0.866
				c0.085-0.018,0.164-0.036,0.248-0.055c0.012-0.006,0.024-0.006,0.036-0.006c0.86-0.121,3.058,0.018,3.058,0.018
				s1.514,0.757,2.271,2.041c0.757,1.278,1.665,1.441,1.968,1.932s1.363,1.096,1.363,1.096l2.271,0.484L374.224,382.824z"/>
			<path style="opacity:0.3;fill-rule:evenodd;clip-rule:evenodd;fill:#B2B2B2;" d="M372.728,384.245
				c-0.252-0.036-0.681-0.642-0.959-0.667c-0.278-0.025-0.681-0.505-0.707,0.025c-0.025,0.53,0.177,0.454,0.202,0.833
				s0.328,0.733,0.429,0.884c0.101,0.151,0.807,0.151,0.807,0.151l0.404-0.58L372.728,384.245z"/>
			<path style="opacity:0.5;fill:#B2B2B2;" d="M363.392,381.202c-0.252,0.101-0.227-0.177-0.681,0s-0.606,0.05-0.707,0.202
				c-0.101,0.151,0,0.631,0,0.707c0,0.076,0.202,0.112,0.555,0.132s0.303-0.297,0.555,0c0.252,0.297,0.858,0,0.858,0
				s0-0.408,0-0.484S363.392,381.202,363.392,381.202z"/>
			<path style="opacity:0.3;fill-rule:evenodd;clip-rule:evenodd;fill:#B2B2B2;" d="M366.258,377.742
				c-0.023-0.024-0.047-0.048-0.063-0.077c-0.015-0.026-0.022-0.055-0.03-0.083c-0.012-0.046-0.026-0.093-0.056-0.13
				s-0.079-0.062-0.125-0.048c-0.045,0.013-0.073,0.06-0.083,0.105c-0.01,0.046-0.008,0.093-0.015,0.14
				c-0.023,0.139-0.137,0.255-0.14,0.396c-0.002,0.075,0.027,0.146,0.036,0.221c0.013,0.109-0.019,0.222,0.008,0.328
				c0.035,0.134,0.155,0.226,0.269,0.305c0.032,0.022,0.065,0.044,0.104,0.048c0.066,0.007,0.126-0.042,0.162-0.098
				c0.036-0.056,0.058-0.121,0.1-0.173c0.02-0.026,0.045-0.048,0.06-0.077C366.618,378.346,366.429,377.927,366.258,377.742z"/>
			<path style="opacity:0.7;fill:#B2B2B2;" d="M366.374,378.763c-0.028-0.025-0.064-0.049-0.1-0.036
				c-0.021,0.008-0.035,0.026-0.052,0.039c-0.059,0.046-0.157,0.025-0.192-0.041c-0.01-0.02-0.016-0.043-0.031-0.06
				c-0.029-0.032-0.082-0.028-0.118-0.053c-0.038-0.027-0.047-0.08-0.041-0.125c0.007-0.046,0.026-0.089,0.033-0.135
				c0.018-0.113-0.041-0.229-0.021-0.341c0.015-0.084,0.047-0.18,0.001-0.258c-0.042,0.097-0.105,0.187-0.108,0.292
				c-0.002,0.075,0.027,0.146,0.036,0.22c0.013,0.109-0.019,0.222,0.008,0.328c0.034,0.134,0.155,0.227,0.269,0.305
				c0.032,0.022,0.065,0.044,0.104,0.048c0.066,0.007,0.126-0.042,0.162-0.098C366.343,378.821,366.359,378.792,366.374,378.763z"/>
		</g>
	</g>
	<g>
		<path style="opacity:0.8;fill:#BDBDBD;" d="M348.005,392.352c-0.181,0.164-0.441,0.202-0.684,0.221
			c-0.395,0.031-0.791,0.031-1.187,0.031c-0.154,0-0.311-0.001-0.456-0.053c-0.162-0.058-0.297-0.177-0.462-0.228
			c-0.303-0.094-0.664,0.055-0.935-0.111c-0.119-0.073-0.201-0.202-0.216-0.341c-0.003-0.028-0.003-0.06,0.014-0.082
			c0.019-0.025,0.053-0.033,0.084-0.039c0.838-0.164,1.708-0.163,2.545,0.003c0.236,0.047,0.47,0.106,0.71,0.123
			c0.249,0.017,0.509-0.019,0.754,0.04c0.173,0.041,0.165,0.047,0.066,0.167C348.163,392.172,348.092,392.273,348.005,392.352z"/>
		<g>
			<path style="fill:#B2B2B2;" d="M348.356,391.372v0.636c0,0-0.495,0.174-0.742,0.27c-0.247,0.096-0.422-0.062-0.703-0.028
				c-0.281,0.039-0.63,0.039-0.804,0c-0.18-0.034-0.951-0.242-0.951-0.242l-0.984-0.174v-0.427c0,0,0.174-0.416,0.208-0.523
				c0.034-0.096,0.118-0.219,0.242-0.371c0.006-0.011,0.011-0.017,0.023-0.028c0.006-0.006,0.011-0.017,0.017-0.023
				c0.096-0.124,0.219-0.096,0.394-0.062c0.056,0.006,0.112,0.017,0.18,0.023c0.028,0.005,0.062,0.005,0.096,0.005
				c0.186,0,0.377-0.084,0.495-0.157c0.023-0.011,0.039-0.023,0.056-0.034v-0.006c0.051-0.028,0.079-0.051,0.079-0.051h0.562
				l0.669,0.315l0.81,0.214L348.356,391.372z"/>
			<path style="opacity:0.3;fill:#B2B2B2;" d="M348.356,391.952v0.056c0,0-0.495,0.174-0.742,0.27
				c-0.247,0.096-0.422-0.062-0.703-0.028c-0.281,0.039-0.63,0.039-0.804,0c-0.18-0.034-0.951-0.242-0.951-0.242l-0.984-0.174
				v-0.427c0,0,0.174-0.416,0.208-0.523c0.034-0.096,0.118-0.219,0.242-0.371c0.039,0.011,0.079,0.023,0.118,0.034
				c-0.017,0.096-0.051,0.197-0.045,0.298c0.005,0.101,0.056,0.208,0.152,0.253c-0.09,0.051-0.051,0.208,0.045,0.253
				c0.096,0.051,0.208,0.023,0.309,0c0.107-0.023,0.225-0.039,0.309,0.017c0.079,0.051,0.112,0.146,0.18,0.208
				c0.067,0.062,0.163,0.084,0.247,0.101c0.174,0.039,0.349,0.079,0.517,0.118c0.208,0.045,0.411,0.09,0.613,0.135
				c0.112,0.023,0.236,0.045,0.337-0.011c0.073-0.039,0.118-0.118,0.191-0.152c0.203-0.101,0.416,0.141,0.636,0.135
				c0.034,0,0.073-0.006,0.101,0.017C348.345,391.923,348.356,391.935,348.356,391.952z"/>
			<path style="opacity:0.3;fill:#B2B2B2;" d="M347.674,390.995c0.015,0.017,0.027,0.04,0.019,0.061
				c-0.09,0.001-0.587,0.031-0.435-0.172c0.06-0.08,0.141-0.066,0.227-0.058c0.061,0.006,0.096-0.006,0.132,0.041
				C347.644,390.904,347.636,390.954,347.674,390.995z"/>
			<path style="opacity:0.3;fill:#B2B2B2;" d="M345.797,390.624c-0.051,0.006-0.152-0.039-0.197-0.056
				c-0.101-0.039-0.152-0.067-0.264-0.062c-0.028,0-0.062-0.006-0.084-0.023c-0.017-0.017-0.022-0.039-0.017-0.062
				c0.028,0.005,0.062,0.005,0.096,0.005c0.219,0,0.439-0.118,0.551-0.191C345.893,390.332,345.926,390.607,345.797,390.624z"/>
			<path style="opacity:0.3;fill:#B2B2B2;" d="M348.356,391.372v0.27c-0.096-0.039-0.186-0.191-0.208-0.253
				c-0.062-0.146-0.079-0.315-0.186-0.433c-0.09-0.112-0.236-0.158-0.377-0.203c-0.112-0.039-0.231-0.073-0.349-0.073
				c-0.191-0.006-0.388,0.079-0.557-0.011c-0.107-0.056-0.18-0.18-0.298-0.214c-0.039-0.006-0.079-0.006-0.124-0.006
				c-0.124-0.006-0.253-0.034-0.366-0.09c-0.017-0.011-0.034-0.017-0.051-0.034c-0.011-0.017-0.017-0.034-0.017-0.056
				c0.023-0.011,0.039-0.023,0.056-0.034v-0.006c0.051-0.028,0.079-0.051,0.079-0.051h0.562l0.669,0.315l0.81,0.214L348.356,391.372
				z"/>
			<path style="opacity:0.3;fill:#B2B2B2;" d="M345.055,390.399c-0.011,0-0.023,0.011-0.028,0.023
				c-0.034,0.045-0.045,0.101-0.09,0.135c-0.039,0.028-0.101,0.023-0.146,0c-0.039-0.017-0.107-0.039-0.146-0.073
				c0.006-0.006,0.011-0.017,0.017-0.023C344.756,390.337,344.88,390.365,345.055,390.399z"/>
		</g>
	</g>
</g>
<g>
	<path style="fill-rule:evenodd;clip-rule:evenodd;fill:#21AD21;" d="M462.579,382.577c0,0,1.234-8.345-4.962-12.6
		c0,0,7.018,3.72,7.018,12.6H462.579z"/>
	<path style="fill-rule:evenodd;clip-rule:evenodd;fill:#22BC22;" d="M456.565,379.789c0.822,1.587,0.765,4.612,0.765,4.612h0.765
		C458.095,384.401,457.755,381.234,456.565,379.789z"/>
	<path style="fill-rule:evenodd;clip-rule:evenodd;fill:#26D226;" d="M463.808,365.405c-2.422,6.677-1.955,18.954-1.955,18.954
		h-1.827C460.026,384.359,460.252,372.792,463.808,365.405z"/>
	<path style="fill-rule:evenodd;clip-rule:evenodd;fill:#26D226;" d="M483.993,375.112c-1.358,3.742-1.096,10.623-1.096,10.623
		h-1.024C481.873,385.735,482,379.252,483.993,375.112z"/>
	<path style="fill-rule:evenodd;clip-rule:evenodd;fill:#22BC22;" d="M480.164,384.213c0,0,1.25-11.365,7.836-15.902
		c0,0-8.85,4.605-10.133,15.902H480.164z"/>
	<path style="fill-rule:evenodd;clip-rule:evenodd;fill:#26D226;" d="M457.16,370.461c1.577,4.347,1.273,12.339,1.273,12.339h1.19
		C459.622,382.8,459.475,375.27,457.16,370.461z"/>
	<g>
		<path style="opacity:0.2;fill-rule:evenodd;clip-rule:evenodd;" d="M482.411,387.124l-0.608-0.742c0,0-3.061-0.579-3.581-0.701
			c-0.519-0.121-2.938,0.121-3.595,0c-0.656-0.121-2.888,0.049-3.416-0.034c-0.525-0.087-2.702,0.064-3.181-0.011
			c-0.479-0.076-2.205,0.046-2.205,0.046s-0.511,0.307-1.407,0.091c-0.898-0.212-1.067-0.614-2.186-0.507
			c-1.119,0.106-2.055,0.595-2.055,0.595l-1.526,0.909l-1.918,2.764l0.092,0.125l0.91,1.227l0.386,0.167l1.105,0.481
			c0,0,0.602,1.284,1.22,1.254c0.618-0.03,1.144-0.125,2.566,0.079c1.414,0.208,2.138-0.087,3.189,0
			c1.042,0.091,1.464,0.549,1.464,0.549h1.881c0,0,0.925-0.542,1.717-0.882c0.794-0.345,2.905-1.011,2.905-1.011
			s1.92-0.183,2.417-0.391c0.499-0.212,1.051-0.193,1.694-0.655s1.367-1.144,1.367-1.144l1.614-0.656l0.028-0.023l0.897-1.395
			L482.411,387.124z"/>
		<path style="fill-rule:evenodd;clip-rule:evenodd;fill:#B2B2B2;" d="M482.411,387.124l-1.123,1.17c0,0-3.463,0.913-4.067,1.105
			c-0.603,0.191-2.854-0.191-3.595,0c-0.74,0.191-2.854-0.078-3.44,0.054c-0.585,0.137-2.657-0.101-3.189,0.018
			c-0.532,0.119-2.174-0.072-2.174-0.072s-0.299-0.484-1.344-0.143c-1.045,0.334-1.493,0.967-2.538,0.8
			c-1.045-0.167-1.642-0.938-1.642-0.938l-0.896-1.433v-4.359l0.179-0.197l1.762-1.935l0.502-0.263l1.439-0.758
			c0,0,1.493-2.024,2.09-1.977c0.597,0.048,1.057,0.197,2.622-0.125c1.558-0.328,2.078,0.137,3.189,0
			c1.105-0.143,1.845-0.866,1.845-0.866h1.881c0,0,0.549,0.854,1.105,1.391c0.555,0.543,2.203,1.594,2.203,1.594
			s1.827,0.675,2.18,1.003c0.352,0.334,0.603,0.52,0.925,1.248c0.322,0.728,0.573,1.803,0.573,1.803l0.376,1.069l0.012,0.036
			l0.991,1.565L482.411,387.124z"/>
		<path style="opacity:0.3;fill:#B2B2B2;" d="M482.411,387.124l-1.123,1.17c0,0-3.463,0.913-4.067,1.105
			c-0.603,0.191-2.854-0.191-3.595,0c-0.74,0.191-2.854-0.078-3.44,0.054c-0.585,0.137-2.657-0.101-3.189,0.018
			c-0.532,0.119-2.174-0.072-2.174-0.072s-0.299-0.484-1.344-0.143c-1.045,0.334-1.493,0.967-2.538,0.8
			c-1.045-0.167-1.642-0.938-1.642-0.938l-0.896-1.433v-4.359l0.179-0.197c0.107,0.119,0.239,0.197,0.394,0.227
			c0.221,0.042,0.442-0.03,0.663-0.036c0.896-0.018,1.493,1.021,1.403,1.911c-0.006,0.078-0.018,0.161,0.012,0.239
			c0.084,0.185,0.346,0.173,0.549,0.143c0.651-0.084,1.326,0.054,1.899,0.376c0.537,0.305,0.997,0.782,1.606,0.896
			c0.496,0.095,1.009-0.072,1.487-0.239c0.651-0.227,1.296-0.448,1.941-0.675c-0.078,0.322,0.161,0.651,0.46,0.8
			c0.293,0.149,0.633,0.173,0.955,0.239c0.531,0.102,1.027,0.316,1.541,0.478c0.854,0.263,1.756,0.382,2.645,0.34
			c0.251-0.012,0.513-0.036,0.734-0.149c0.209-0.107,0.382-0.281,0.579-0.4c0.394-0.227,0.866-0.239,1.32-0.245
			c0.734-0.006,1.469-0.018,2.197-0.024c0.167,0,0.352,0.006,0.454,0.137c0.119,0.149,0.054,0.37,0.143,0.543
			c0.108,0.221,0.418,0.251,0.645,0.149c0.221-0.102,0.382-0.293,0.573-0.448c0.424-0.334,0.949-0.454,1.493-0.478L482.411,387.124z
			"/>
		<path style="opacity:0.3;fill-rule:evenodd;clip-rule:evenodd;fill:#B2B2B2;" d="M481.277,385.314
			c-0.012,0.024-0.024,0.042-0.036,0.066c-0.066-0.173-0.287-0.221-0.472-0.197c-0.179,0.018-0.364,0.078-0.543,0.024
			c-0.352-0.101-0.418-0.555-0.591-0.884c-0.394-0.752-1.517-0.949-1.791-1.75c-0.078-0.227-0.084-0.49-0.233-0.669
			c-0.114-0.131-0.287-0.197-0.448-0.257c-1.141-0.418-2.287-0.83-3.428-1.248c-0.293-0.107-0.597-0.221-0.8-0.46
			c-0.191-0.221-0.305-0.555-0.591-0.603c-0.203-0.036-0.394,0.095-0.585,0.173c-0.591,0.233-1.26-0.09-1.881,0.03
			c-0.388,0.078-0.717,0.311-1.087,0.442c-0.4,0.137-0.83,0.155-1.254,0.173c-0.663,0.018-1.326,0.042-1.994,0.066
			c-0.269,0.012-0.645-0.113-0.573-0.37c-0.728,0.239-1.427,0.573-2.066,0.991c-0.215,0.143-0.424,0.293-0.657,0.376
			c-0.448,0.167-1.045,0.048-1.397-0.287l1.439-0.758c0,0,1.493-2.024,2.09-1.977c0.597,0.048,1.057,0.197,2.622-0.125
			c1.558-0.328,2.078,0.137,3.189,0c1.105-0.143,1.845-0.866,1.845-0.866h1.881c0,0,0.549,0.854,1.105,1.391
			c0.555,0.543,2.203,1.594,2.203,1.594s1.827,0.675,2.18,1.003c0.352,0.334,0.603,0.52,0.925,1.248
			c0.322,0.728,0.573,1.803,0.573,1.803L481.277,385.314z"/>
		<path style="opacity:0.3;fill-rule:evenodd;clip-rule:evenodd;fill:#B2B2B2;" d="M480.327,382.442
			c-0.322-0.729-0.573-0.914-0.925-1.248c-0.352-0.328-2.18-1.003-2.18-1.003s-1.648-1.051-2.203-1.594
			c-0.555-0.538-1.105-1.391-1.105-1.391h-1.881c0,0-0.47,0.451-1.215,0.711c0.03,0.072,0.066,0.141,0.124,0.192
			c0.064,0.057,0.147,0.088,0.23,0.11c0.966,0.264,2.108-0.406,2.946,0.142c0.27,0.177,0.454,0.454,0.682,0.683
			c0.258,0.26,0.572,0.456,0.883,0.65c0.812,0.507,1.625,1.014,2.478,1.447c0.618,0.314,1.294,0.62,1.656,1.211
			c0.065,0.106,0.118,0.219,0.193,0.319c0.127,0.171,0.326,0.294,0.547,0.375C480.487,382.838,480.41,382.628,480.327,382.442z"/>
		<path style="opacity:0.3;fill:#B2B2B2;" d="M463.646,381.198c-0.182,0.123-0.169,0.388-0.236,0.597
			c-0.028,0.087-0.073,0.172-0.077,0.263c-0.009,0.23,0.244,0.387,0.473,0.411s0.465-0.029,0.688,0.027
			c0.207,0.052,0.4,0.196,0.611,0.162c0.252-0.041,0.39-0.312,0.471-0.555c0.031-0.093,0.06-0.19,0.052-0.287
			c-0.008-0.098-0.061-0.198-0.152-0.234c-0.293-0.119-0.233-0.583-0.67-0.587c-0.15-0.001-0.315,0.073-0.464,0.094
			C464.13,381.119,463.831,381.073,463.646,381.198z"/>
		<path style="opacity:0.3;fill:#B2B2B2;" d="M476.386,385.127c-0.393,0.218-0.92,0.015-1.314,0.232
			c-0.071,0.089-0.04,0.229,0.041,0.31s0.195,0.116,0.306,0.143c0.241,0.059,0.489,0.091,0.737,0.096
			c0.049,0.001,0.1,0.001,0.143,0.024c0.035,0.019,0.062,0.05,0.093,0.074c0.07,0.053,0.161,0.067,0.249,0.076
			c0.176,0.019,0.353,0.028,0.53,0.027c0.042,0,0.086-0.001,0.124-0.02c0.046-0.023,0.077-0.069,0.103-0.114
			c0.151-0.258,0.193-0.57-0.044-0.781C477.022,384.901,476.736,384.933,476.386,385.127z"/>
		<path style="opacity:0.3;fill:#B2B2B2;" d="M475.61,380.621c-0.006,0.024-0.03,0.042-0.048,0.06
			c-0.078,0.06-0.167,0.095-0.263,0.101c-0.096,0.012-0.197,0-0.281-0.042c-0.119-0.06-0.215-0.167-0.34-0.233
			c-0.137-0.072-0.299-0.078-0.454-0.113c-0.149-0.042-0.311-0.132-0.346-0.287c-0.018-0.09,0.012-0.191,0.078-0.251
			c0.03-0.03,0.072-0.054,0.095-0.084c0.095-0.125-0.012-0.322,0.078-0.454c0.012-0.018,0.024-0.03,0.042-0.042
			c0.048-0.036,0.108-0.048,0.167-0.042c0.084,0.006,0.155,0.042,0.227,0.084c0.454,0.257,0.8,0.746,1.027,1.212
			C475.604,380.561,475.616,380.591,475.61,380.621z"/>
		<path style="opacity:0.7;fill:#B2B2B2;" d="M475.299,380.782c-0.096,0.012-0.197,0-0.281-0.042
			c-0.119-0.06-0.215-0.167-0.34-0.233c-0.137-0.072-0.299-0.078-0.454-0.113c-0.149-0.042-0.311-0.132-0.346-0.287
			c-0.018-0.09,0.012-0.191,0.078-0.251c0.03-0.03,0.072-0.054,0.095-0.084c0.095-0.125-0.012-0.322,0.078-0.454
			c0.012-0.018,0.024-0.03,0.042-0.042c0.072,0.137,0.084,0.352,0.006,0.466c-0.03,0.042-0.066,0.072-0.096,0.113
			c-0.024,0.042-0.042,0.09-0.024,0.137c0.018,0.06,0.084,0.084,0.143,0.107c0.072,0.036,0.143,0.078,0.203,0.132
			c0.054,0.048,0.101,0.107,0.161,0.143c0.084,0.048,0.191,0.054,0.275,0.107c0.084,0.048,0.137,0.137,0.227,0.173
			c0.048,0.024,0.108,0.03,0.161,0.054C475.258,380.722,475.281,380.752,475.299,380.782z"/>
	</g>
	<path style="fill-rule:evenodd;clip-rule:evenodd;fill:#21AD21;" d="M455.325,387.529c0,0,0.887-6.147-3.569-9.282
		c0,0,5.047,2.741,5.047,9.282H455.325z"/>
	<path style="fill-rule:evenodd;clip-rule:evenodd;fill:#22BC22;" d="M467.425,385.544c-1.098,2.12-1.022,6.163-1.022,6.163h-1.022
		C465.381,391.707,465.835,387.475,467.425,385.544z"/>
	<path style="fill-rule:evenodd;clip-rule:evenodd;fill:#22BC22;" d="M485.25,385.544c-1.098,2.12-1.022,6.163-1.022,6.163h-1.022
		C483.206,391.707,483.66,387.475,485.25,385.544z"/>
	<path style="fill-rule:evenodd;clip-rule:evenodd;fill:#26D226;" d="M485.754,386.928c0.541,1.045,0.504,3.037,0.504,3.037h0.504
		C486.762,389.965,486.538,387.88,485.754,386.928z"/>
	<path style="fill-rule:evenodd;clip-rule:evenodd;fill:#26D226;" d="M483.131,386.417c-0.541,1.045-0.504,3.037-0.504,3.037h-0.504
		C482.123,389.454,482.347,387.369,483.131,386.417z"/>
	<path style="fill-rule:evenodd;clip-rule:evenodd;fill:#26D226;" d="M455.57,386.417c-0.541,1.045-0.504,3.037-0.504,3.037h-0.504
		C454.563,389.454,454.786,387.369,455.57,386.417z"/>
	<path style="fill-rule:evenodd;clip-rule:evenodd;fill:#26D226;" d="M484.497,383.129c-0.541,1.045-0.504,3.037-0.504,3.037h-0.504
		C483.49,386.165,483.713,384.08,484.497,383.129z"/>
	<path style="fill-rule:evenodd;clip-rule:evenodd;fill:#26D226;" d="M456.129,383.971c1.098,2.12,1.022,6.163,1.022,6.163h1.022
		C458.174,390.134,457.72,385.902,456.129,383.971z"/>
	<path style="fill-rule:evenodd;clip-rule:evenodd;fill:#21AD21;" d="M482.627,376.763c-1.759,4.848-1.419,13.762-1.419,13.762
		h-1.327C479.881,390.525,480.045,382.127,482.627,376.763z"/>
	<path style="fill-rule:evenodd;clip-rule:evenodd;fill:#21AD21;" d="M460.496,391.181c0,0-1.28-8.869,5.149-13.391
		c0,0-7.282,3.954-7.282,13.391H460.496z"/>
</g>
<g>
	<path style="fill-rule:evenodd;clip-rule:evenodd;fill:#22BC22;" d="M297.062,371.946c-2.627,5.072-2.446,14.744-2.446,14.744
		h-2.445C292.171,386.69,293.258,376.566,297.062,371.946z"/>
	<path style="fill-rule:evenodd;clip-rule:evenodd;fill:#26D226;" d="M301.924,380.31c-1.294,2.499-1.205,7.265-1.205,7.265h-1.205
		C299.514,387.575,300.05,382.586,301.924,380.31z"/>
	<path style="fill-rule:evenodd;clip-rule:evenodd;fill:#26D226;" d="M297.592,383.841c-1.294,2.499-1.205,7.265-1.205,7.265h-1.205
		C295.182,391.106,295.717,386.117,297.592,383.841z"/>
	<path style="fill-rule:evenodd;clip-rule:evenodd;fill:#26D226;" d="M278.451,374.601c2.627,5.072,2.445,14.744,2.445,14.744h2.445
		C283.342,389.345,282.255,379.221,278.451,374.601z"/>
	<path style="fill-rule:evenodd;clip-rule:evenodd;fill:#26D226;" d="M301.413,382.585c1.362,2.63,1.268,7.645,1.268,7.645h1.268
		C303.949,390.23,303.385,384.98,301.413,382.585z"/>
	<path style="fill-rule:evenodd;clip-rule:evenodd;fill:#26D226;" d="M275.508,382.585c1.362,2.63,1.268,7.645,1.268,7.645h1.268
		C278.044,390.23,277.48,384.98,275.508,382.585z"/>
	<path style="fill-rule:evenodd;clip-rule:evenodd;fill:#26D226;" d="M292.822,369c-2.487,6.855-2.007,19.46-2.007,19.46h-1.876
		C288.939,388.46,289.171,376.584,292.822,369z"/>
	<path style="fill-rule:evenodd;clip-rule:evenodd;fill:#22BC22;" d="M284.048,377.256c2.627,5.072,2.445,14.744,2.445,14.744h2.446
		C288.939,392,287.852,381.876,284.048,377.256z"/>
</g>
<g>
	<g>
		<path style="fill-rule:evenodd;clip-rule:evenodd;fill:#22BC22;" d="M416.264,373.201c-1.889,3.648-1.759,10.603-1.759,10.603
			h-1.759C412.747,383.805,413.529,376.523,416.264,373.201z"/>
		<path style="fill-rule:evenodd;clip-rule:evenodd;fill:#26D226;" d="M423.58,378.945c-0.931,1.797-0.867,5.225-0.867,5.225h-0.867
			C421.847,384.17,422.232,380.582,423.58,378.945z"/>
		<path style="fill-rule:evenodd;clip-rule:evenodd;fill:#26D226;" d="M415.372,385.329c-0.931,1.797-0.867,5.225-0.867,5.225
			h-0.867C413.639,390.553,414.024,386.966,415.372,385.329z"/>
		<path style="fill-rule:evenodd;clip-rule:evenodd;fill:#22BC22;" d="M404.995,369c1.889,3.648,1.759,10.603,1.759,10.603h1.759
			C408.513,379.603,407.731,372.322,404.995,369z"/>
		<path style="fill-rule:evenodd;clip-rule:evenodd;fill:#26D226;" d="M401.487,379.623c1.889,3.648,1.759,10.603,1.759,10.603
			h1.759C405.004,390.226,404.223,382.945,401.487,379.623z"/>
		<path style="fill-rule:evenodd;clip-rule:evenodd;fill:#26D226;" d="M399.663,373.37c0.979,1.891,0.912,5.498,0.912,5.498h0.912
			C401.487,378.868,401.081,375.093,399.663,373.37z"/>
		<path style="fill-rule:evenodd;clip-rule:evenodd;fill:#26D226;" d="M400.126,380.257c0.979,1.891,0.912,5.498,0.912,5.498h0.912
			C401.95,385.755,401.545,381.98,400.126,380.257z"/>
		<path style="fill-rule:evenodd;clip-rule:evenodd;fill:#26D226;" d="M411.306,371.39c-1.789,4.93-1.443,13.995-1.443,13.995
			h-1.349C408.513,385.385,408.68,376.844,411.306,371.39z"/>
	</g>
	<g>
		<path style="opacity:0.2;" d="M413.17,386.696c-0.173,0.115-0.387,0.147-0.587,0.202c-0.361,0.098-0.698,0.28-0.979,0.527
			c-0.174,0.153-0.336,0.336-0.558,0.403c-0.121,0.036-0.25,0.034-0.376,0.031c-0.298-0.007-0.596-0.013-0.895-0.02
			c-0.341-0.008-0.684-0.016-1.018-0.08c-0.535-0.103-1.049-0.35-1.594-0.337c-0.185,0.005-0.373,0.039-0.552-0.005
			c-0.191-0.046-0.349-0.175-0.5-0.3c-0.369-0.306-0.739-0.611-1.108-0.917c-0.138-0.114-0.284-0.321-0.156-0.447
			c0.044-0.043,0.107-0.058,0.168-0.07c1.362-0.272,2.763-0.26,4.152-0.247c0.949,0.009,1.9,0.017,2.844,0.112
			C412.407,385.588,414.066,386.103,413.17,386.696z"/>
		<g>
			<path style="fill:#B2B2B2;" d="M413.463,384.846v1.309c0,0-1.02,0.359-1.529,0.556c-0.51,0.197-0.869-0.127-1.449-0.058
				c-0.579,0.081-1.298,0.081-1.657,0c-0.371-0.07-1.958-0.499-1.958-0.499l-2.028-0.359v-0.88c0,0,0.359-0.858,0.429-1.078
				c0.07-0.197,0.243-0.452,0.498-0.765c0.012-0.023,0.023-0.035,0.046-0.058c0.012-0.012,0.023-0.035,0.035-0.046
				c0.197-0.255,0.452-0.197,0.811-0.127c0.116,0.012,0.232,0.035,0.371,0.046c0.058,0.011,0.127,0.011,0.197,0.011
				c0.383,0,0.776-0.174,1.02-0.324c0.046-0.023,0.081-0.046,0.116-0.07v-0.012c0.104-0.058,0.162-0.104,0.162-0.104h1.159
				l1.379,0.649l1.669,0.44L413.463,384.846z"/>
			<path style="opacity:0.3;fill:#B2B2B2;" d="M413.463,386.04v0.116c0,0-1.02,0.359-1.529,0.556
				c-0.51,0.197-0.869-0.127-1.449-0.058c-0.579,0.081-1.298,0.081-1.657,0c-0.371-0.07-1.958-0.499-1.958-0.499l-2.028-0.359v-0.88
				c0,0,0.359-0.858,0.429-1.078c0.07-0.197,0.243-0.452,0.498-0.765c0.081,0.023,0.162,0.046,0.243,0.07
				c-0.035,0.197-0.104,0.405-0.093,0.614c0.011,0.208,0.116,0.429,0.313,0.521c-0.186,0.104-0.104,0.429,0.092,0.521
				c0.197,0.104,0.429,0.046,0.637,0c0.22-0.046,0.463-0.081,0.637,0.035c0.162,0.104,0.232,0.301,0.371,0.429
				c0.139,0.128,0.336,0.174,0.51,0.209c0.359,0.081,0.718,0.162,1.066,0.243c0.429,0.093,0.846,0.185,1.263,0.278
				c0.232,0.046,0.487,0.092,0.695-0.023c0.151-0.081,0.243-0.243,0.394-0.313c0.417-0.209,0.858,0.29,1.31,0.278
				c0.069,0,0.151-0.012,0.209,0.035C413.44,385.982,413.463,386.005,413.463,386.04z"/>
			<path style="opacity:0.3;fill:#B2B2B2;" d="M412.057,384.069c0.031,0.034,0.056,0.083,0.039,0.126
				c-0.184,0.001-1.209,0.063-0.897-0.354c0.124-0.165,0.291-0.136,0.467-0.119c0.125,0.012,0.197-0.012,0.272,0.085
				C411.995,383.881,411.979,383.983,412.057,384.069z"/>
			<path style="opacity:0.3;fill:#B2B2B2;" d="M408.19,383.305c-0.104,0.012-0.313-0.081-0.406-0.116
				c-0.209-0.081-0.313-0.139-0.545-0.127c-0.058,0-0.128-0.012-0.174-0.046c-0.035-0.035-0.046-0.081-0.035-0.127
				c0.058,0.011,0.127,0.011,0.197,0.011c0.452,0,0.904-0.243,1.136-0.394C408.387,382.702,408.457,383.27,408.19,383.305z"/>
			<path style="opacity:0.3;fill:#B2B2B2;" d="M413.463,384.846v0.556c-0.197-0.081-0.382-0.394-0.429-0.521
				c-0.128-0.301-0.162-0.649-0.383-0.892c-0.185-0.232-0.487-0.325-0.776-0.417c-0.232-0.081-0.475-0.151-0.718-0.151
				c-0.394-0.012-0.8,0.162-1.148-0.023c-0.22-0.116-0.371-0.371-0.614-0.441c-0.081-0.012-0.162-0.012-0.255-0.012
				c-0.255-0.012-0.521-0.07-0.753-0.185c-0.035-0.023-0.07-0.035-0.104-0.07c-0.023-0.035-0.035-0.069-0.035-0.116
				c0.046-0.023,0.081-0.046,0.116-0.07v-0.012c0.104-0.058,0.162-0.104,0.162-0.104h1.159l1.379,0.649l1.669,0.44L413.463,384.846z
				"/>
			<path style="opacity:0.3;fill:#B2B2B2;" d="M406.66,382.841c-0.023,0-0.046,0.023-0.058,0.046
				c-0.07,0.092-0.093,0.209-0.185,0.278c-0.081,0.058-0.209,0.046-0.301,0c-0.081-0.035-0.22-0.081-0.301-0.151
				c0.012-0.012,0.023-0.035,0.035-0.046C406.046,382.714,406.301,382.772,406.66,382.841z"/>
		</g>
	</g>
</g>
<g>
	<g>
		<path style="fill:#A67C52;" d="M433,289.744c-25.019,7.106-49.334,6.911-73,0c16.061-22.581,18.609-45.162,2.281-67.744h68.438
			C412.829,244.581,415.443,267.163,433,289.744z"/>
		<path style="opacity:0.4;fill:#A67C52;" d="M433,289.744c-0.999-1.285-1.943-2.57-2.844-3.854
			c-3.38,0.693-9.506,2.264-10.031,2.267c-6.125,0.036-13.134-2.79-18.5-5.703c-8.278-4.495-9.948-12.174-12.265-21.211
			c-0.984-3.84-0.326-7.442-0.15-11.177c5.839-0.149,11.502-3.653,14.099-8.828c2.779,3.697,8.46,4.895,12.529,2.642
			c0.815-0.451,1.844-1.02,2.594-0.468c0.356,0.263,0.741,0.5,1.137,0.727c1.661-7.38,5.304-14.759,11.15-22.139h-68.438
			c16.328,22.581,13.779,45.162-2.281,67.744C383.666,296.654,407.981,296.849,433,289.744z"/>
	</g>
	<g>
		<path style="fill:#3CC63C;" d="M376.089,241.898c-1.219,0.695-2.784,0.813-4.019,0.127c-2.468,3.08-6.937,5.183-10.34,3.203
			c-0.737-0.428-1.386-1.027-2.19-1.307c-1.781-0.62-3.898,0.459-5.57-0.414c-1.411-0.736-1.93-2.584-3.281-3.425
			c-1.622-1.009-3.546-0.327-5.306-0.398c-2.097-0.085-2.987-1.473-4.963-1.836c-2.916-0.536-5.409-2.814-6.12-5.595
			c-2.798,1.612-6.522,1.594-9.303-0.045c-2.781-1.639-4.496-4.828-4.286-7.966c-2.691-0.456-5.455-0.016-8.183-0.173
			c-2.727-0.157-5.689-1.13-6.966-3.461c-1.497-2.733-0.158-6.327-1.704-9.035c-1.477-2.588-5.005-3.39-6.958-5.665
			c-1.768-2.06-1.895-5.276-0.295-7.46c-3.488-1.021-6.204-4.155-6.628-7.647c-0.425-3.493,1.466-7.147,4.614-8.919
			c-1.892-1.942-2.231-5.029-1.126-7.471c1.105-2.442,3.478-4.23,6.11-5.042c0.61-0.188,1.308-0.383,1.597-0.935
			c0.289-0.552,0.036-1.215-0.235-1.776c-1.179-2.445-2.673-4.749-4.438-6.84c-1.355-1.605-2.898-3.132-3.687-5.057
			c-0.808-1.972-0.527-4.246,1.095-5.743c-4.123-1.688-4.795-7.237-4.618-11.119c0.23-5.02-1.44-10.562,1.348-15.167
			c0.503-0.83,1.105-1.602,1.518-2.481c2.373-5.052-1.879-12.35,2.243-16.092c0.997-0.905,2.316-1.364,3.39-2.174
			c3.062-2.308,3.407-6.679,4.462-10.381c1.055-3.702,4.493-7.681,8.035-6.228c-0.346-5.851,5.073-10.111,8.58-14.788
			c3.694-4.927,8.654-12.837,15.984-10.772c0.678,0.191,1.374,0.467,2.065,0.332c0.709-0.138,1.262-0.678,1.775-1.19
			c2.934-2.932,6.04-5.802,9.783-7.567c3.743-1.765,8.258-2.297,11.986-0.5c0.62,0.299,1.258,0.668,1.943,0.612
			c0.746-0.061,1.35-0.611,1.89-1.133c2.39-2.312,4.782-4.703,7.717-6.253c2.934-1.55,6.563-2.152,9.561-0.732
			c0.749,0.355,1.461,0.833,2.277,0.978c2.098,0.373,3.852-1.495,5.241-3.122c6.212-7.274,13.421,5.522,13.808,5.195
			c2.418-2.042,5.134-3.755,8.043-5.072c1.029-0.466,2.142-0.891,3.271-0.76c0.966,0.112,1.828,0.618,2.655,1.112
			c3.369,2.013,7.084,4.524,7.562,8.319c3.881-7.882,15.142-6.615,21.77-4.072c3.657,1.403,6.06,1.268,9.915,1.474
			c2.346,0.126,3.98,0.206,5.78,1.93c0.331,0.317,2.697,4.053,2.371,4.25c2.82-1.702,6.459-1.943,9.477-0.629
			c4.919,2.143,7.493,7.692,11.98,10.645c3.906,2.57,9.517,3.488,11.226,7.86c1.069,2.733,0.161,6.072,1.698,8.569
			c0.86,1.397,2.335,2.261,3.63,3.263c6.332,4.902,8.574,14.459,5.091,21.696c2.086,5.648,2.045,9.76-0.424,15.312
			c-0.64,1.439-2.498,3.068-2.499,4.671c0,0.667,0.313,1.294,0.467,1.945c0.477,2.018-0.626,4.098-2.113,5.623
			c-1.487,1.525-3.357,2.677-4.915,4.138c-0.384,0.361-0.778,0.844-0.62,1.332c0.126,0.392,0.555,0.61,0.922,0.831
			c2.721,1.635,3.425,5.105,3.144,8.125c-0.063,0.678-0.159,1.385,0.101,2.021c0.382,0.933,1.409,1.453,2.242,2.076
			c3.219,2.407,3.582,6.474,3.376,10.053c-0.087,1.519-0.115,3.37-0.836,4.736c-0.24,0.454-3.803,3.64-3.529,3.924
			c2.021,2.093,2.655,4.922,1.672,7.623c-0.949,2.607-3.099,4.687-5.478,6.302c2.705,0.62,3.69,3.809,3.455,6.413
			c-0.401,4.429-2.997,8.64-6.888,11.174c1.918,1.195,2.513,3.775,1.666,5.783c-0.847,2.009-2.877,3.434-5.078,4.066
			c0.914,1.368,0.989,3.194,0.19,4.624c-0.821,1.471-2.409,2.417-4.004,3.135c-2.838,1.277-5.934,2.05-9.073,2.266
			c-0.219,1.637-0.439,3.274-0.659,4.911c-0.049,0.362-0.103,0.74-0.327,1.038c-0.448,0.598-1.361,0.642-2.14,0.615
			c-1.741-0.061-4.573-0.91-6.212-0.481c-1.453,0.38-1.932,1.782-3.075,2.842c-2.494,2.314-6.05,3.502-9.418,2.968
			c-3.024,5.247-9.832,7.933-15.59,6.152c-3.934,2.055-9.033,1.6-12.546-1.121c-2.97,3.267-8.119,4.283-12.094,2.385
			c-0.656-0.313-1.293-0.701-2.008-0.827c-0.798-0.141-1.61,0.056-2.412,0.166c-5.113,0.706-10.497-2.56-12.268-7.442
			c0.31,4.916-4.462,8.648-9.106,10.198c-1.631,0.544-3.4,0.942-5.057,0.482c-3.072-0.853-4.628-4.21-5.793-7.197
			c-1.786,0.04-1.96,2.601-2.694,4.242C377.401,240.883,376.804,241.49,376.089,241.898z"/>
		<path style="opacity:0.2;fill:#3CC63C;" d="M488.212,218.925c1.595-0.718,3.183-1.664,4.004-3.135
			c0.525-0.94,0.665-2.049,0.445-3.088c-0.556,0.121-1.117,0.216-1.69,0.251c-3.661,0.219-7.375-1.678-9.36-4.784
			c-0.639,3.279-3.548,5.974-6.846,6.343c-3.298,0.369-6.723-1.618-8.061-4.675c0.174,2.844-1.367,5.727-3.821,7.146
			c-3.568,2.064-8.086,0.688-11.544-1c-2.344-1.144-8.515-4.875-8.771-7.9c0.23,2.715-0.344,5.497-1.649,7.884
			c-1.024,1.873-2.691,4.417-4.512,5.581c-1.551,0.992-3.01,0.554-4.761,0.678c-3.812,0.272-6.779,3.916-10.595,4.119
			c-3.062,0.162-5.792-1.963-7.732-4.355c-0.442-0.545-0.965-1.164-1.664-1.157c-0.85,0.008-1.363,0.902-1.919,1.549
			c-2.407,2.797-7.063,1.455-9.886-0.916c-3.047-2.561-5.297-6.07-6.36-9.921c-0.49,5.337-3.897,10.309-8.677,12.666
			c-0.57,0.281-1.238,0.529-1.822,0.279c-0.533-0.228-0.824-0.796-1.073-1.323c-1.169-2.475-2.338-4.949-3.508-7.423
			c-0.547,3.586-1.45,7.217-3.515,10.19c-2.065,2.973-5.49,5.193-9.087,4.977c-2.371-0.142-4.583-1.296-6.946-1.541
			c-3.572-0.37-7.963,1.087-10.262-1.691c-1.934-2.336-0.704-5.842,0.6-8.586c-2.195-0.124-3.815-2.436-3.784-4.65
			c0.032-2.214,1.338-4.227,2.931-5.753c1.593-1.526,3.49-2.691,5.173-4.115c-3.486,0.537-7.125-2.282-7.505-5.814
			c-0.388-3.612,2.18-7.195,1.287-10.715c-1.142,2.207-2.472,4.589-4.78,5.479c-2.308,0.89-5.593-0.96-5.011-3.378
			c-1.281,1.494,0.221,4.151-1.031,5.67c-0.564,0.685-1.51,0.887-2.385,1.011c-4.333,0.618-8.785,0.386-13.031-0.681
			c-1.133-0.285-2.39-0.749-2.833-1.836c-0.851-2.087,1.974-3.959,2.069-6.213c-1.411-0.446-2.189-2.062-2.158-3.55
			c0.03-1.489,0.686-2.882,1.329-4.223c1.07-2.234,2.141-4.468,3.211-6.702c-1.368,0.531-3.591-0.888-4.969-0.383
			c-3.197,1.171-6.487-2.453-6.401-5.877c0.086-3.425,2.309-6.368,4.431-9.046c-2.564-0.386-4.365-3.188-4.058-5.78
			c0.307-2.592,2.385-4.76,4.837-5.605c-3.873-0.441-7.624-1.924-10.761-4.255c-0.899-0.669-1.782-1.45-2.187-2.499
			c-0.452-1.168-0.243-2.487,0.105-3.691c1.861-6.425,7.843-11.423,14.458-12.076c-2.574-1.86-1.523-6.12,0.743-8.35
			c2.266-2.229,5.393-3.513,7.346-6.026c-2.853-0.087-4.856-3.356-4.406-6.195c0.45-2.839,2.691-5.091,5.186-6.488
			c-3.11-0.949-5.186-4.276-5.131-7.549c0.055-3.272,1.993-6.34,4.664-8.205c0.655-0.457,1.382-0.881,1.775-1.58
			c0.393-0.699,0.254-1.778-0.493-2.059c0.536-4.969,6.898-8.226,11.2-5.734c1.63-5.094,8.395-7.704,12.987-5.01
			c-2.995-4.863-3.573-11.054-1.882-16.497c-0.564,0.199-1.119,0.418-1.655,0.671c-3.743,1.765-6.85,4.635-9.783,7.567
			c-0.512,0.512-1.066,1.052-1.775,1.19c-0.692,0.135-1.387-0.141-2.065-0.332c-7.329-2.065-12.29,5.845-15.984,10.772
			c-3.507,4.678-8.926,8.938-8.58,14.789c-3.542-1.453-6.98,2.526-8.036,6.228c-1.055,3.702-1.4,8.073-4.462,10.381
			c-1.074,0.81-2.393,1.269-3.39,2.174c-4.122,3.742,0.131,11.04-2.242,16.092c-0.413,0.879-1.016,1.651-1.518,2.481
			c-2.788,4.605-1.118,10.147-1.348,15.167c-0.178,3.882,0.494,9.431,4.617,11.119c-1.622,1.496-1.902,3.77-1.095,5.743
			c0.789,1.926,2.332,3.452,3.687,5.057c1.765,2.091,3.26,4.395,4.439,6.84c0.27,0.561,0.524,1.224,0.235,1.776
			c-0.289,0.552-0.986,0.747-1.597,0.935c-2.631,0.812-5.004,2.6-6.11,5.042c-1.105,2.442-0.766,5.529,1.126,7.471
			c-3.148,1.772-5.038,5.427-4.614,8.919c0.425,3.493,3.141,6.626,6.628,7.647c-1.601,2.184-1.474,5.4,0.294,7.46
			c1.953,2.276,5.481,3.078,6.958,5.665c1.546,2.708,0.206,6.302,1.704,9.035c1.277,2.33,4.239,3.303,6.966,3.461
			s5.492-0.283,8.183,0.173c-0.211,3.137,1.504,6.326,4.285,7.966c2.781,1.639,6.505,1.657,9.303,0.045
			c0.712,2.781,3.204,5.059,6.121,5.595c1.976,0.363,2.867,1.751,4.963,1.836c1.76,0.071,3.684-0.61,5.306,0.398
			c1.352,0.841,1.871,2.689,3.282,3.425c1.673,0.873,3.789-0.206,5.57,0.414c0.804,0.28,1.453,0.879,2.19,1.307
			c3.404,1.979,7.872-0.123,10.34-3.203c1.235,0.686,2.8,0.568,4.019-0.127c0.716-0.408,1.312-1.016,1.653-1.776
			c0.734-1.64,0.908-4.202,2.694-4.242c1.165,2.987,2.721,6.343,5.793,7.197c1.657,0.46,3.425,0.062,5.057-0.482
			c4.643-1.549,9.415-5.282,9.106-10.198c1.771,4.882,7.155,8.147,12.268,7.442c0.803-0.111,1.615-0.308,2.412-0.166
			c0.715,0.127,1.352,0.514,2.008,0.827c3.974,1.898,9.124,0.883,12.094-2.385c3.513,2.721,8.612,3.177,12.546,1.121
			c5.758,1.782,12.566-0.905,15.59-6.152c3.367,0.533,6.924-0.654,9.418-2.968c1.143-1.06,1.622-2.462,3.075-2.842
			c1.639-0.429,4.471,0.42,6.212,0.481c0.779,0.027,1.691-0.016,2.14-0.615c0.224-0.298,0.279-0.676,0.327-1.038
			c0.219-1.637,0.439-3.274,0.659-4.911C482.279,220.976,485.374,220.202,488.212,218.925z"/>
		<path style="opacity:0.3;fill:#3CC63C;" d="M507.361,105.018c3.483-7.237,1.241-16.794-5.09-21.696
			c-1.294-1.002-2.769-1.865-3.63-3.263c-1.537-2.496-0.629-5.836-1.698-8.569c-1.71-4.373-7.32-5.29-11.226-7.86
			c-4.487-2.952-7.06-8.502-11.98-10.645c-3.017-1.314-6.656-1.073-9.476,0.629c0.326-0.196-2.04-3.933-2.371-4.25
			c-1.799-1.724-3.434-1.805-5.78-1.93c-3.854-0.206-6.258-0.071-9.915-1.474c-6.628-2.542-17.889-3.809-21.77,4.072
			c-0.478-3.795-4.193-6.306-7.562-8.319c-0.827-0.494-1.689-1.001-2.655-1.112c-1.129-0.131-2.242,0.295-3.271,0.761
			c-2.909,1.317-5.626,3.03-8.044,5.072c-0.387,0.327-7.596-12.469-13.808-5.195c-1.389,1.627-3.143,3.495-5.241,3.122
			c-0.816-0.145-1.527-0.623-2.277-0.978c-0.737-0.349-1.513-0.573-2.307-0.694c1.722,1.949,2.774,4.463,2.581,7.087
			c3.167,0.553,6.406-0.102,9.62-0.126c3.214-0.025,6.758,0.79,8.619,3.429c2.048,2.903,1.348,6.863,0.562,10.335
			c3.716-2.411,9.016,0.696,10.386,4.929c1.37,4.232-0.033,8.84-1.739,12.946c1.985-3.933,5.354-7.427,9.642-8.332
			c4.287-0.905,9.358,1.553,10.337,5.853c0.326-6.89,2.414-14.249,7.919-18.354c5.504-4.105,14.947-2.915,17.412,3.521
			c1.97-2.957,6.849-2.647,9.189,0.023c2.34,2.67,2.467,6.734,1.327,10.105c2.668-2.713,7.695-1.5,9.795,1.678
			c1.611,2.438,1.787,5.518,1.22,8.319c-0.223,1.101-0.92,2.242-0.16,3.199c0.871,1.097,2.445,1.157,3.215,2.645
			c0.79,1.526,0.593,3.587-0.655,4.762c0.916-0.294,1.942,0.294,2.411,1.139s0.487,1.871,0.359,2.831
			c-0.361,2.699-1.829,5.231-3.986,6.875c-2.156,1.644-4.975,2.379-7.652,1.996c1.086,0.35,2.171,0.701,3.257,1.051
			c0.274,0.088,0.558,0.183,0.764,0.386c0.19,0.188,0.291,0.449,0.361,0.709c0.472,1.759-0.305,3.695-1.631,4.934
			s-3.116,1.867-4.903,2.151c1.449,0.533,2.571,1.879,2.842,3.408c0.216,1.217-0.157,2.343-0.72,3.399
			c0.091-0.17,3.234-0.658,3.559-0.718c1.675-0.311,3.383-0.442,5.085-0.388c1.187,0.038,2.5,0.231,3.256,1.152
			c0.459,0.56,0.632,1.301,0.72,2.022c0.234,1.935-0.057,3.932-0.835,5.717c1.195-1.313,3.564-0.801,4.574,0.661
			c1.01,1.462,0.913,3.45,0.341,5.135c-0.515,1.516-1.429,3.148-2.665,4.191c-1.004,0.847-2.284,1.184-3.344,1.988
			c5.672-0.215,11.031,5.161,10.103,11.006c2.291-1.28,5.261,0.988,5.669,3.594c0.409,2.606-0.893,5.151-2.261,7.401
			c3.209,0.444,6.496,0.914,9.346,2.462c0.247,0.134,0.485,0.292,0.724,0.446c0.967-0.986,2.166-2.118,2.302-2.375
			c0.721-1.365,0.749-3.216,0.836-4.736c0.205-3.58-0.157-7.646-3.376-10.053c-0.833-0.623-1.86-1.144-2.242-2.076
			c-0.261-0.635-0.165-1.342-0.102-2.021c0.282-3.021-0.422-6.49-3.144-8.125c-0.367-0.221-0.796-0.439-0.922-0.831
			c-0.157-0.488,0.236-0.971,0.62-1.332c1.557-1.462,3.428-2.613,4.915-4.138c1.487-1.525,2.589-3.605,2.113-5.623
			c-0.154-0.651-0.467-1.278-0.467-1.945c0.001-1.603,1.859-3.232,2.499-4.671C509.407,114.778,509.447,110.667,507.361,105.018z"/>
	</g>
</g>
<g>
	<g>
		<path style="fill:#846549;" d="M193,290.744c-25.019,7.106-49.334,6.911-73,0c16.061-22.581,18.61-45.162,2.281-67.744h68.438
			C172.829,245.581,175.443,268.163,193,290.744z"/>
		<path style="opacity:0.4;fill:#846549;" d="M179.256,289.139c-6.047,0.036-12.966-2.796-18.264-5.717
			c-8.172-4.506-9.822-12.205-12.108-21.264c-0.558-2.21-0.582-4.487-0.451-6.749c0.129-2.233,0.1-4.32,0.935-6.387
			c1.601,0.955,3.865,0.587,5.082-0.826c0.222-0.258,0.459-0.57,0.799-0.583c0.199-0.007,0.384,0.096,0.56,0.191
			c4.372,2.375,10.222,1.634,13.865-1.756c0.933,1.518,3.12,2.096,4.68,1.237c0.419-0.231,0.819-0.557,1.297-0.574
			c0.192,1.292,0.778,2.558,1.788,3.385c0.347,0.285,0.75,0.504,1.175,0.655c0.694-7.99,3.657-15.979,9.137-23.968
			c0.383-0.809,0.866-1.559,1.43-2.069c0.044-0.04,0.084-0.07,0.126-0.107c0.443-0.597,0.893-1.193,1.365-1.79H122.18
			c16.341,22.638,13.79,45.276-2.283,67.913c23.685,6.928,48.019,7.124,73.057,0c-1.043-1.343-2.028-2.686-2.964-4.029l0,0
			C186.955,287.265,179.82,289.136,179.256,289.139z"/>
	</g>
	<g>
		<g>
			<path style="fill:#F9AC00;" d="M163.707,240.526c-0.189,0.028-0.378,0.055-0.566,0.083c-2.917,0.426-6.336,0.692-8.367-1.437
				c-0.159,2.472-2.685,4.292-5.167,4.433c-0.711,0.04-1.448-0.021-2.113,0.232c-0.559,0.213-1.012,0.63-1.508,0.964
				c-2.171,1.461-5.36,1.17-7.228-0.66c-0.359-0.352-0.686-0.761-1.144-0.971c-0.551-0.253-1.188-0.172-1.794-0.195
				c-1.889-0.072-2.812-1.23-4.366-1.979c-2.224-1.071-1.038-1.001-3.083-0.031c-2.762,1.309-5.607,3.589-8.431,0.372
				c-2.712,3.145-7.596,4.191-11.365,2.435c-0.731-0.341-1.441-0.78-2.242-0.876c-1.061-0.127-2.083,0.365-3.106,0.675
				c-4.985,1.509-10.886-2.064-11.837-7.168c-3.02,0.674-6.329,0.594-9.035-0.904c-2.706-1.497-4.619-4.624-4.074-7.66
				c-3.778,0.249-7.69,0.48-11.235-0.843c-4.876-1.82-8.218-8.369-7.991-13.362c0.11-2.416,0.22-4.832,0.33-7.249
				c-2.75,0.432-5.841-0.968-7.342-3.327c-0.397-0.624-1.738-7.587,0.068-7.063c-4.345-1.261-7.497-6.312-9.107-10.211
				c-1.842-4.46-4.413-7.046-1.843-12.074c0.315-0.617,0.66-1.294,0.503-1.968c-0.154-0.662-0.742-1.115-1.247-1.572
				c-3.385-3.064-3.918-8.767-1.16-12.402c0.966-1.274,2.344-2.511,2.234-4.105c-2.97-0.408-4.9-3.78-4.414-6.728
				c0.486-2.948,2.835-5.319,5.522-6.646c-2.586-1.996-3.074-6.186-1.015-8.719c0.484-0.595,1.099-1.134,1.298-1.874
				c0.132-0.491,0.061-1.01,0.037-1.518c-0.217-4.631,4.322-8.89,8.947-8.397c0.006-3.881,3.542-6.71,6.739-8.927
				c-2.014-1.516-2.902-4.058-3.686-6.448c-0.377-1.151-0.754-2.302-1.132-3.453c-1.281-3.91,0.228-4.264,1.9-7.366
				c1.28-2.375,1.563-5.226,2.299-7.787c1.098-3.819,4.677-7.922,8.364-6.424c-0.156-2.611,0.39-5.529,2.468-7.202
				c0.64-0.515,8.796-4.579,9-3.35c-1.184-7.131,2.865-14.747,10.281-16.139c0.46-0.086,5.695,0.486,4.918,1.681
				c2.432-3.739,6.584-6.696,11.047-6.436c1.597,0.093,3.145,0.585,4.635,1.166c1.929,0.751,3.798,1.656,5.582,2.703
				c0.209,0.123,0.433,0.252,0.675,0.245c0.405-0.012,0.692-0.382,0.927-0.711c1.738-2.438,4.088-4.593,6.986-5.371
				c2.897-0.779,6.373,0.126,7.973,2.656c1.44-2.867,4.046-5.13,7.092-6.161c2.587-0.875,5.315-0.796,7.91-0.015
				c1.726,0.52,1.355,0.571,2.819-0.277c0.919-0.532,1.705-1.125,2.721-1.498c3.81-1.396,8.522-0.603,11.361,2.385
				c0.687,0.723,1.323,1.583,2.272,1.896c0.669,0.221,1.399,0.133,2.097,0.233c3.082,0.444,4.388,4.081,5.07,7.108
				c3.818-3.699,8.653-8.849,14.085-10.082c2.002-0.455,4.742-0.261,6.693,0.311c2.156,0.633,3.114,3.548,5.074,3.617
				c1.683,0.059,3.284-0.64,4.912-1.069c2.525-0.665,5.277-0.669,7.692,0.32c2.415,0.989,4.439,3.044,5.066,5.561
				c2.506-1.609,5.902-1.741,8.527-0.33c2.625,1.411,4.37,4.305,4.383,7.268c3.542-0.054,7.167,0.253,10.411,1.667
				s6.078,4.078,6.986,7.477c0.276,1.035,0.385,2.147,0.97,3.047c1.653,2.541,5.55,1.736,8.437,2.704
				c2.322,0.779,4.035,2.824,4.982,5.068c0.947,2.244,1.236,4.699,1.514,7.117c4.76,0.738,9.704,2.955,10.968,8.033
				c1.236,4.966-2.026,10.087-0.232,15.03c0.745,2.051,2.344,3.728,2.974,5.817c0.553,1.834,0.172,3.79,0.504,5.606
				c0.433,2.366,1.256,3.97,0.666,6.509c-0.614,2.641-2.021,5.018-3.348,7.384c-0.364,0.648-0.73,1.321-0.81,2.06
				c-0.116,1.069,0.377,2.096,0.745,3.107c1.361,3.747,1.004,8.077-0.951,11.553c-0.394,0.7-0.862,1.411-0.876,2.213
				c-0.028,1.612,1.671,2.613,2.686,3.868c1.535,1.898,1.44,4.913-0.212,6.711c-0.787,0.856-1.943,1.61-1.957,2.771
				c-0.008,0.653,0.369,1.239,0.645,1.832c1.532,3.297-0.509,7.727-4.017,8.718c2.759,3.442,2.108,8.506-0.314,11.95
				c-0.881,1.253-2.124,2.309-3.214,3.376c-1.624,1.59-3.295,1.889-4.999,3.13c-0.714,0.52-0.961,1.447-1.302,2.26
				c-1.411,3.366-5.359,5.464-8.951,4.756c-0.188,1.983-1.853,3.588-3.73,4.271s-3.939,0.609-5.93,0.43
				c1.068,1.568,1.955,3.368,1.89,5.262c-0.065,1.894-1.341,3.847-3.218,4.15c1.641,4.165-0.641,9.44-4.806,11.112
				c0.122-0.049-0.111,2.511-0.205,2.776c-0.341,0.957-0.912,1.52-1.643,2.166c-1.508,1.334-2.919,2.795-4.947,3.33
				c-1.191,0.314-2.441,0.336-3.671,0.264c-0.358-0.021-0.734-0.046-1.056,0.11c-0.438,0.212-0.657,0.695-0.921,1.102
				c-0.932,1.436-2.645,2.126-4.25,2.731c-1.8,0.679-3.781,1.363-5.602,0.742c-0.363-0.124-0.726-0.301-1.109-0.278
				c-0.483,0.029-0.883,0.364-1.25,0.678c-1.425,1.218-2.978,2.388-4.804,2.822c-0.894,0.212-1.645,0.038-2.528,0.021
				c-0.905-0.018-1.179,0.089-2.107,0.356c-1.562,0.448-3.318,0.222-4.659-0.717c-1.047,1.282-2.389,2.389-3.987,2.833
				c-1.598,0.444-3.471,0.117-4.604-1.091c-0.284-0.303-0.561-0.678-0.973-0.732c-0.368-0.048-0.706,0.181-1.03,0.361
				c-1.648,0.918-3.878,0.648-5.258-0.635c-1.381-1.284-1.805-3.481-1-5.184c-1.852,1.937-5.441,1.757-7.089-0.356
				c-0.913,0.628-1.92,1.12-2.977,1.456c-1.173,0.373-2.398,0.553-3.617,0.73C164.461,240.416,164.084,240.471,163.707,240.526z"/>
		</g>
		<path style="opacity:0.2;fill:#FCE300;" d="M238.278,223.107c-1.274-2.266-2.071-4.593-1.565-7.053
			c-1.626,5.214-3.593,10.878-8.286,13.721c-4.693,2.844-12.617,0.2-12.349-5.251c-3.211,7.446-14.094,10.242-20.541,5.276
			c-1.577-1.215-3.033-2.85-5.015-3.079c-1.26-0.146-2.499,0.319-3.747,0.549c-2.582,0.475-5.454-0.163-7.275-2.042
			c-1.821-1.878-2.287-5.062-0.725-7.157c-3.741,0.323-6.99-3.021-7.88-6.642c-0.89-3.621-0.019-7.413,0.849-11.039
			c-2.684,4.849-7.416,8.539-12.799,9.978c1.702,0.456,1.941,2.726,1.808,4.471c-0.333,4.381-1.046,9.237-4.494,11.991
			c-3.448,2.754-10.197,0.807-9.801-3.568c-0.8,4.055-5.482,6.678-9.559,5.846c-4.077-0.832-7.196-4.536-7.988-8.593
			c-0.153,5.037-5.788,9.127-10.67,7.742c-4.882-1.384-7.491-7.811-4.94-12.169c-3.779,1.219-7.824,2.449-11.655,1.403
			c-2.531-0.691-5.714-3.325-5.727-6.188c-0.013-2.732,2.319-3.404,3.739-5.523c-3.202,0.957-6.036-2.154-6.351-5.132
			c-0.336-3.174,1.037-6.261,1.434-9.428c-3.563,3.718-9.456,5.019-14.27,3.152c-0.889-0.345-1.808-0.859-2.156-1.74
			c-0.963-2.438,3.047-4.262,3.095-6.88c-2.643,0.027-5.374-0.036-7.783-1.117c-2.409-1.081-4.426-3.437-4.294-6.058
			c0.097-1.937,1.294-3.616,2.196-5.336c2.142-4.085,2.925-9.111,6.471-12.081c3.195-2.676,7.732-2.9,11.911-2.996
			c-2.692-3.824-1.55-9.329,1.382-12.975c2.932-3.645,7.258-5.86,11.45-7.969c-2.839,1.114-6.261-0.428-7.88-2.997
			c-1.619-2.569-1.68-5.868-0.87-8.79c-2.56,2.167-5.278,4.412-8.579,5.056c-3.302,0.644-7.309-0.97-8.072-4.224
			c-1.385-5.906,7.85-9.175,8.874-15.154c0.19-1.111,0.074-2.251,0.193-3.372c0.538-5.08,5.496-8.368,9.952-10.924
			c-3.645,0.084-5.287-5.164-3.324-8.214c1.963-3.05,5.769-4.272,9.271-5.277c-4.282,0.484-8.321-3.338-8.73-7.597
			c-0.409-4.259,2.291-8.438,6.03-10.565s8.315-2.428,12.554-1.655c2.669-6.071,11.782-8.076,16.786-3.693
			c-0.967-3.988-0.44-8.262,1.271-11.991c-1.768-1.914-4.783-2.553-7.351-1.863c-2.897,0.779-5.248,2.933-6.986,5.371
			c-0.235,0.329-0.522,0.7-0.927,0.711c-0.243,0.007-0.466-0.122-0.675-0.245c-1.784-1.047-3.653-1.952-5.582-2.703
			c-1.49-0.58-3.037-1.072-4.635-1.166c-4.464-0.26-8.616,2.697-11.047,6.436c0.777-1.195-4.458-1.767-4.918-1.681
			c-7.416,1.392-11.465,9.008-10.281,16.139c-0.204-1.229-8.36,2.835-9,3.349c-2.078,1.673-2.624,4.591-2.468,7.202
			c-3.687-1.499-7.265,2.605-8.364,6.424c-0.737,2.561-1.02,5.412-2.3,7.787c-1.672,3.102-3.181,3.456-1.9,7.366
			c0.377,1.151,0.754,2.302,1.131,3.453c0.783,2.391,1.672,4.933,3.686,6.448c-3.197,2.217-6.733,5.046-6.739,8.927
			c-4.626-0.493-9.164,3.766-8.947,8.397c0.024,0.508,0.095,1.027-0.037,1.518c-0.199,0.74-0.814,1.279-1.298,1.874
			c-2.059,2.533-1.571,6.723,1.015,8.719c-2.686,1.327-5.036,3.698-5.521,6.646c-0.486,2.948,1.444,6.32,4.414,6.728
			c0.11,1.593-1.268,2.831-2.234,4.105c-2.758,3.635-2.224,9.338,1.16,12.402c0.505,0.457,1.093,0.91,1.247,1.572
			c0.157,0.674-0.188,1.351-0.503,1.968c-2.57,5.028,0.001,7.614,1.843,12.074c1.61,3.898,4.761,8.95,9.107,10.211
			c-1.806-0.524-0.465,6.439-0.068,7.063c1.501,2.359,4.593,3.759,7.342,3.327c-0.11,2.416-0.22,4.832-0.329,7.249
			c-0.227,4.993,3.114,11.542,7.991,13.362c3.545,1.323,7.458,1.092,11.235,0.843c-0.545,3.036,1.368,6.163,4.074,7.66
			c2.706,1.497,6.015,1.578,9.035,0.904c0.952,5.105,6.852,8.678,11.837,7.168c1.023-0.31,2.045-0.802,3.106-0.675
			c0.801,0.096,1.511,0.535,2.242,0.876c3.769,1.756,8.653,0.71,11.365-2.435c2.824,3.217,5.669,0.937,8.431-0.372
			c2.046-0.969,0.859-1.04,3.083,0.031c1.553,0.748,2.477,1.907,4.366,1.979c0.606,0.023,1.243-0.058,1.794,0.195
			c0.458,0.21,0.785,0.619,1.144,0.971c1.868,1.83,5.057,2.121,7.228,0.66c0.497-0.334,0.949-0.75,1.508-0.964
			c0.665-0.254,1.402-0.192,2.113-0.233c2.482-0.141,5.007-1.961,5.167-4.433c2.031,2.129,5.45,1.863,8.367,1.437
			c0.189-0.028,0.378-0.055,0.566-0.083c0.377-0.055,0.754-0.11,1.131-0.165c1.219-0.178,2.443-0.357,3.616-0.73
			c1.057-0.336,2.064-0.829,2.977-1.456c1.647,2.113,5.237,2.293,7.089,0.356c-0.804,1.702-0.38,3.9,1,5.184
			c1.381,1.284,3.61,1.553,5.259,0.635c0.324-0.18,0.662-0.41,1.03-0.361c0.412,0.054,0.689,0.429,0.973,0.732
			c1.132,1.208,3.006,1.534,4.604,1.091c1.598-0.444,2.94-1.551,3.987-2.833c1.341,0.938,3.098,1.165,4.659,0.717
			c0.928-0.266,1.202-0.373,2.107-0.356c0.883,0.017,1.634,0.192,2.528-0.021c1.826-0.434,3.379-1.604,4.804-2.822
			c0.367-0.314,0.767-0.649,1.25-0.678c0.384-0.023,0.746,0.154,1.109,0.278c1.821,0.621,3.802-0.063,5.602-0.742
			c1.605-0.605,3.318-1.295,4.25-2.731c0.264-0.408,0.483-0.89,0.921-1.102c0.322-0.156,0.698-0.131,1.056-0.11
			c1.23,0.072,2.48,0.051,3.671-0.263c2.027-0.535,3.439-1.997,4.947-3.33c0.731-0.647,1.301-1.209,1.642-2.166
			c0.095-0.266,0.327-2.825,0.205-2.776C235.91,226.158,237.346,224.777,238.278,223.107z"/>
		<path style="opacity:0.3;fill:#FCE300;" d="M268.698,176.176c3.508-0.991,5.549-5.421,4.017-8.718
			c-0.275-0.593-0.652-1.178-0.645-1.832c0.014-1.161,1.17-1.914,1.957-2.771c1.652-1.798,1.748-4.813,0.212-6.71
			c-1.015-1.255-2.715-2.256-2.686-3.868c0.014-0.802,0.482-1.514,0.876-2.213c1.955-3.476,2.312-7.806,0.951-11.553
			c-0.367-1.011-0.861-2.038-0.745-3.107c0.08-0.738,0.447-1.411,0.81-2.06c1.327-2.366,2.735-4.743,3.348-7.384
			c0.59-2.539-0.233-4.143-0.666-6.509c-0.332-1.815,0.049-3.772-0.504-5.606c-0.63-2.089-2.229-3.765-2.974-5.817
			c-1.794-4.943,1.468-10.063,0.232-15.03c-1.264-5.078-6.209-7.295-10.968-8.033c-0.279-2.418-0.567-4.872-1.514-7.117
			c-0.947-2.244-2.66-4.289-4.982-5.068c-2.887-0.968-6.784-0.163-8.437-2.704c-0.585-0.9-0.694-2.012-0.97-3.047
			c-0.908-3.4-3.742-6.064-6.986-7.477c-3.244-1.413-6.869-1.721-10.411-1.667c-0.012-2.963-1.758-5.858-4.383-7.268
			s-6.021-1.279-8.527,0.33c-0.627-2.517-2.651-4.572-5.066-5.561c-2.415-0.989-5.167-0.985-7.692-0.32
			c-1.628,0.429-3.229,1.128-4.912,1.069c-1.959-0.069-2.917-2.983-5.074-3.617c-1.951-0.573-4.691-0.766-6.693-0.311
			c-5.432,1.233-10.267,6.383-14.085,10.082c-0.683-3.028-1.988-6.664-5.07-7.108c-0.698-0.101-1.427-0.012-2.097-0.233
			c-0.949-0.313-1.585-1.173-2.272-1.896c-2.839-2.988-7.551-3.781-11.361-2.385c-1.016,0.372-1.803,0.966-2.721,1.498
			c-0.727,0.421-1.002,0.62-1.305,0.65c0.269,0.744,0.442,1.524,0.497,2.301c0.209,2.95-0.865,5.832-2.052,8.545
			c1.982-0.545,3.995-1.094,6.052-1.085c2.057,0.01,4.2,0.651,5.588,2.158c2.076,2.253,1.951,5.682,1.7,8.725
			c1.444-0.485,2.888-0.97,4.333-1.455c1.453-0.488,3.002-0.981,4.493-0.623c2.166,0.52,3.516,2.663,4.272,4.744
			c1.009,2.781,1.375,5.789,1.063,8.728c2.278-1.508,5.415-3.97,8.253-4.22c1.176-0.103,2.488,0.381,2.99,1.441
			c0.441,0.932,0.166,2.022,0.132,3.052c-0.006,0.173-0.001,0.357,0.095,0.501c0.237,0.355,0.784,0.214,1.178,0.048
			c2.111-0.891,4.389-1.389,6.681-1.46c0.363-0.011,0.76-0.001,1.04,0.229c0.244,0.2,0.343,0.521,0.423,0.825
			c0.365,1.395,0.571,2.831,0.614,4.272c0.028,0.94-0.02,1.91-0.409,2.768c-0.683,1.506-2.358,3.233-3.324,4.654
			c-1.339,1.972-3.138,3.619-5.269,4.717c2.528-0.358,4.888,1.939,5.227,4.451c0.338,2.512-0.918,5.011-2.651,6.873
			c1.909,0.274,3.786-0.508,5.637-1.046c3.75-1.091,11.966-2.102,14.725,1.664c1.808,2.468,0.236,5.933-1.611,8.371
			c4.021-1.391,8.236-2.229,12.486-2.482c2.07-0.123,4.413,0,5.81,1.521c0.743,0.809,2.766,8.173,1.618,8.623
			c0.823-0.323,1.313-1.14,1.901-1.796c1.098-1.223,2.637-1.948,4.132-2.641c2.042-0.946,4.358-1.909,6.476-1.145
			c0.525,0.189,1.023,0.491,1.357,0.935c1.239,1.649-0.547,2.788,1.484,3.432c2.267,0.72,7.907,1.628,9.201,4.019
			c0.239,0.442,0.273,0.961,0.301,1.462c0.145,2.544,0.197,5.374-1.493,7.292c-1.394,1.583-3.711,2.125-5.809,1.835
			c0.073,2.161-2.298,3.674-4.471,3.834c-2.749,0.202-5.197-0.559-7.923-0.034c2.067,0.21,3.558,2.046,3.834,4.019
			c0.28,2.002-0.468,4.008-1.428,5.79c-0.977,1.813-2.279,3.58-4.171,4.417c3.477-2.095,7.581-3.151,11.646-2.998
			c0.967,0.037,2.005,0.171,2.72,0.819c0.754,0.684,0.964,1.777,0.998,2.79c0.122,3.648-1.581,7.313-4.455,9.59
			c0.787,2.451-0.239,5.189-1.956,7.116c-1.978,2.22-4.78,3.849-7.563,4.748c2.317,1.043,4.821,1.801,7.221,2.669
			c1.024,0.37,2.078,0.758,2.872,1.499c1.208,1.126,1.606,2.882,1.594,4.527c-0.037,5.455-4.354,10.581-9.756,11.584
			c2.5-0.249,5.284-0.42,7.25,1.133c1.765,1.394,2.332,4.073,1.307,6.068c-1.026,1.995-3.519,3.111-5.711,2.58
			c1.238,1.901,3.68,2.369,5.831,3.268c1.315,0.019,2.623-0.101,3.852-0.548c1.877-0.683,3.541-2.288,3.73-4.271
			c3.591,0.708,7.539-1.39,8.951-4.756c0.341-0.813,0.588-1.74,1.302-2.26c1.704-1.241,3.375-1.54,4.999-3.13
			c1.09-1.067,2.333-2.124,3.214-3.376C270.806,184.682,271.458,179.618,268.698,176.176z"/>
	</g>
</g>
<g>
	<path style="opacity:0.2;" d="M348.327,337.952c-0.536,1.528-1.325,2.874-2.286,4.048H272c2.984-2.257,5.918-4.048,5.918-4.048
		H348.327z"/>
	<g>
		<path style="fill:#1FB51F;" d="M278.434,338c0,0-8.373-31.412,15.347-22.22c0,0,1.394-25.405,21.853-9.601
			c0,0,19.723-15.804,20.757,9.379c0,0,22.07-0.864,11.957,22.441H278.434z"/>
		<path style="opacity:0.3;fill:#1FB51F;" d="M281.111,326.854c-2.974-11.999,8.988-12.162,9.304-12.164
			c-19.521-4.988-11.981,23.31-11.981,23.31h30.497C301.403,337.833,283.483,336.424,281.111,326.854z"/>
		<path style="opacity:0.3;fill:#1FB51F;" d="M336.391,315.559c-1.034-25.183-20.757-9.379-20.757-9.379
			c-9.001-6.953-14.31-5.929-17.436-2.602l0.001,0.001c0,0,12.043-2.056,15.057,8.077c0,0,8.036-9.12,15.068-6.08
			c0,0,8.036,2.027,3.014,14.186c0,0,19.014-5.189,18.549,14.123C355.771,314.8,336.391,315.559,336.391,315.559z"/>
	</g>
</g>
<g>
	<path style="opacity:0.2;" d="M365.017,340c0,0-28.046,16.953,1.553,11.942c0,0-14.538,13.85,15.933,5.234
		c0,0,9.9,8.616,26.739-5.113c0,0,21.632,0.471,26.093-12.235L365.017,340z"/>
	<g>
		<path style="fill:#1FB51F;" d="M365.434,340c0,0-8.373-31.412,15.347-22.22c0,0,1.394-25.405,21.853-9.601
			c0,0,19.723-15.804,20.757,9.379c0,0,22.07-0.864,11.957,22.441H365.434z"/>
		<path style="opacity:0.3;fill:#1FB51F;" d="M368.111,328.854c-2.974-11.999,8.988-12.162,9.304-12.164
			c-19.521-4.988-11.981,23.31-11.981,23.31h30.497C388.403,339.833,370.483,338.424,368.111,328.854z"/>
		<path style="opacity:0.3;fill:#1FB51F;" d="M423.391,317.559c-1.034-25.183-20.757-9.379-20.757-9.379
			c-9.001-6.953-14.31-5.929-17.436-2.602l0.001,0.001c0,0,12.043-2.056,15.057,8.077c0,0,8.036-9.12,15.068-6.08
			c0,0,8.036,2.027,3.014,14.186c0,0,19.014-5.189,18.549,14.123C442.771,316.8,423.391,317.559,423.391,317.559z"/>
	</g>
</g>
<g>
	<path style="fill:#1FB51F;" d="M454.434,340c0,0-8.373-31.412,15.347-22.22c0,0,1.394-25.405,21.853-9.601
		c0,0,19.723-15.804,20.757,9.379c0,0,22.071-0.864,11.958,22.441H454.434z"/>
	<path style="opacity:0.3;fill:#1FB51F;" d="M457.111,328.854c-2.974-11.999,8.988-12.162,9.304-12.164
		c-19.521-4.988-11.981,23.31-11.981,23.31h30.497C477.403,339.833,459.483,338.424,457.111,328.854z"/>
	<path style="opacity:0.3;fill:#1FB51F;" d="M512.391,317.559c-1.034-25.183-20.756-9.379-20.756-9.379
		c-9.001-6.953-14.31-5.929-17.436-2.602l0.001,0.001c0,0,12.043-2.056,15.057,8.077c0,0,8.036-9.12,15.068-6.08
		c0,0,8.036,2.027,3.014,14.186c0,0,19.014-5.189,18.549,14.123C531.771,316.8,512.391,317.559,512.391,317.559z"/>
</g>
</svg>
